/* XPM */
static char *ad[] = {
/* columns rows colors chars-per-pixel */
"31 18 212 2 ",
"   c #624F5F",
".  c #6B5759",
"X  c #5E4B60",
"o  c #5C4A65",
"O  c #564569",
"+  c #5A496A",
"@  c #665161",
"#  c #6C5760",
"$  c #BC3F0A",
"%  c #C90B00",
"&  c #CA0A00",
"*  c #C90C00",
"=  c #CD1200",
"-  c #CB1600",
";  c #C51E04",
":  c #CB1A00",
">  c #CB1B00",
",  c #CB1B01",
"<  c #CC1800",
"1  c #CC1900",
"2  c #CC1A00",
"3  c #CC1B00",
"4  c #CA1C01",
"5  c #CB1C01",
"6  c #C72604",
"7  c #C62D06",
"8  c #D33705",
"9  c #D73D19",
"0  c #D3391C",
"q  c #D43728",
"w  c #BA490D",
"e  c #B94B0E",
"r  c #BD4A0D",
"t  c #B65512",
"y  c #BE5E12",
"u  c #BE6117",
"i  c #B06D16",
"p  c #B96815",
"a  c #B76918",
"s  c #B97919",
"d  c #8F7338",
"f  c #9E7F33",
"g  c #9B7D3F",
"h  c #D74701",
"j  c #D84C01",
"k  c #C1510F",
"l  c #CB540C",
"z  c #CF5D0E",
"x  c #CD5F0E",
"c  c #D95000",
"v  c #C05410",
"b  c #CB5611",
"n  c #C0600E",
"m  c #DF6B01",
"M  c #DE6D03",
"N  c #CB770D",
"B  c #D97104",
"V  c #D77A04",
"C  c #DF7C03",
"Z  c #CB7B10",
"A  c #CB7E10",
"S  c #E17801",
"D  c #E57900",
"F  c #E47A00",
"G  c #E37C01",
"H  c #DA4529",
"J  c #DE6839",
"K  c #DE683E",
"L  c #A78517",
"P  c #A98F15",
"I  c #A88D16",
"U  c #A8851E",
"Y  c #A98B1A",
"T  c #A9881E",
"R  c #AD8B1E",
"E  c #AC8A1F",
"W  c #B08A1F",
"Q  c #B28E1F",
"!  c #B58E1F",
"~  c #AF9317",
"^  c #BD9A16",
"/  c #B6931B",
"(  c #B0901C",
")  c #B7931E",
"_  c #BB911D",
"`  c #B9921D",
"'  c #BC921E",
"]  c #BB9B1B",
"[  c #BE9D1A",
"{  c #B8981E",
"}  c #BB981E",
"|  c #BD9B1D",
" . c #BA9C1D",
".. c #BD9D1D",
"X. c #BFA01A",
"o. c #A58826",
"O. c #AE8F21",
"+. c #AD8E22",
"@. c #AB8925",
"#. c #A3832B",
"$. c #B08B21",
"%. c #B28B20",
"&. c #B38E21",
"*. c #B29222",
"=. c #B69120",
"-. c #B89123",
";. c #BB9621",
":. c #BC9621",
">. c #BD9722",
",. c #B89B21",
"<. c #BD9A22",
"1. c #A68D35",
"2. c #DF8904",
"3. c #D88C09",
"4. c #D79204",
"5. c #D79D00",
"6. c #D79609",
"7. c #C18116",
"8. c #C49817",
"9. c #CB9814",
"0. c #CC9814",
"q. c #C49D1E",
"w. c #C69F1F",
"e. c #E68701",
"r. c #E48702",
"t. c #CBA40E",
"y. c #D9A209",
"u. c #CFA512",
"i. c #C1A01B",
"p. c #C2A31A",
"a. c #C2A518",
"s. c #C2A41B",
"d. c #CAAD18",
"f. c #CFB614",
"g. c #CDB018",
"h. c #D1B415",
"j. c #D5BF11",
"k. c #E7A001",
"l. c #E7A400",
"z. c #E8A000",
"x. c #E3AE01",
"c. c #E7AB04",
"v. c #E5AE05",
"b. c #EFAA00",
"n. c #EEAB01",
"m. c #EEAE01",
"M. c #ECAD02",
"N. c #E8AD04",
"B. c #E3BC09",
"V. c #F0B300",
"C. c #F0B500",
"Z. c #F1B500",
"A. c #D8CA0F",
"S. c #DFD40C",
"D. c #D4C011",
"F. c #D5C012",
"G. c #DBCB12",
"H. c #DECE11",
"J. c #DFD110",
"K. c #E8C101",
"L. c #EDC202",
"P. c #EEDB00",
"I. c #EADD04",
"U. c #EBDD07",
"Y. c #E2D10A",
"T. c #E4D20B",
"R. c #E5D509",
"E. c #E1D00C",
"W. c #E4D10C",
"Q. c #E1D60C",
"!. c #E2D70C",
"~. c #EADB08",
"^. c #EBDB08",
"/. c #F2D000",
"(. c #F1E306",
"). c #F1E405",
"_. c #F2E405",
"`. c #F2E505",
"'. c #F7EA01",
"]. c #F7EC03",
"[. c #FAEC00",
"{. c #F8EC03",
"}. c #F9EE02",
"|. c #F8EF02",
" X c #FCF201",
".X c #FEF500",
"XX c #FFF600",
"oX c #FFF700",
"OX c #FFF800",
"+X c #FFFA00",
"@X c yellow",
"#X c #F5CF3D",
"$X c #FAE138",
"%X c #94894A",
"&X c #8A8656",
"*X c #8E8953",
"=X c #8E8954",
"-X c #E99749",
";X c #27209C",
":X c #1A15A3",
">X c #1813A6",
",X c #0605B7",
"<X c #0908B5",
"1X c #0202B9",
"2X c #0201BA",
"3X c #0000BD",
"4X c #0000BE",
"5X c #0000BF",
"6X c #0000C0",
"7X c #0000C2",
"8X c #0000C4",
"9X c #0000C5",
/* pixels */
"3X3X3X3X3X3X3X3X3X3X*X@XXXXXXXXXXXXXXXXXC.* 1 1 1 1 1 1 1 1 1 ",
"3X3X3X3X3X3X3X3X3X3X*X@XoXOXoXXXoXOXXXoXC.* 1 1 1 1 1 1 1 1 1 ",
"3X3X3X3X3X3X3X3X3X6X&X+X}.W.). X(.T. X|.V.& 1 1 1 1 1 1 1 1 1 ",
"3X3X3X3X3X3X3X3X5X:X1.h.U.f.s.g.i.j.~.d.9.7 < 1 1 1 1 1 1 1 1 ",
"3X3X3X3X3X3X3X3X9X+ q.:.^ [ W ;.Q X.] >.<.v - 1 1 1 1 1 1 1 1 ",
"3X3X3X3X3X3X3X6X;X. n = K 0 c A k.G n.j S.a 6 1 1 1 1 1 1 1 1 ",
"3X3X3X3X3X3X3X7XX / y 9 $X#X8 Z z.G n.j Q.+.e : 1 1 1 1 1 1 1 ",
"3X3X3X3X3X3X4X1Xd ) u H -XJ q N z.F b.h !.*.i 5 1 1 1 1 1 1 1 ",
"3X3X3X3X3X3X3X8X@ #.7.z x l b 0.y.6.B.3.D.%.r 2 1 1 1 1 1 1 1 ",
"3X3X3X3X3X3X3X4X<Xo t.C c.2.B G.I.4.V N.A.t 4 1 1 1 1 1 1 1 1 ",
"3X3X3X3X3X3X3X8X  @.u.D m.e.m J.P.5.l./.E.$.w : 1 1 1 1 1 1 1 ",
"3X3X3X3X3X3X3X8XO R 8.S M.r.M H.'.K.x.L.F.O.$ 1 1 1 1 1 1 1 1 ",
"3X3X3X3X3X3X4X3Xf w.=.! ` ' _ } | .. .{ &.,.p , 1 1 1 1 1 1 1 ",
"3X3X3X3X3X3X4X2X# g o.P ~ ( E T U Y I I L s k 3 1 1 1 1 1 1 1 ",
"3X3X3X3X3X3X3X4X,X>X%X[.`.Y.p.-.a.R._.).v.; > 1 1 1 1 1 1 1 1 ",
"3X3X3X3X3X3X3X3X3X5X=X@XoX.X{.^.].XXoXoXZ.% 1 1 1 1 1 1 1 1 1 ",
"3X3X3X3X3X3X3X3X3X3X*X@XXXXXXXXXXXXXXXXXC.* 1 1 1 1 1 1 1 1 1 ",
"3X3X3X3X3X3X3X3X3X3X*X@XXXXXXXXXXXXXXXXXC.* 1 1 1 1 1 1 1 1 1 "
};
