/* XPM */
static char *ae[] = {
/* columns rows colors chars-per-pixel */
"31 18 29 1 ",
"  c #CE1126",
". c #D30D27",
"X c #884019",
"o c #0B9302",
"O c #009A00",
"+ c #0A9301",
"@ c #CD0B20",
"# c #DD626F",
"$ c #F8F1EF",
"% c #FBFEFB",
"& c #E06371",
"* c #FEF3F5",
"= c white",
"- c #DF6371",
"; c #FDF3F4",
": c #CD0B21",
"> c #DC5F6D",
", c #F3E9EB",
"< c gray96",
"1 c #D31126",
"2 c #8E121F",
"3 c #1D1314",
"4 c #131313",
"5 c #D31127",
"6 c #870B18",
"7 c #080000",
"8 c black",
"9 c #880C19",
"0 c #0B0102",
/* pixels */
"      .XoOOOOOOOOOOOOOOOOOOOOOO",
"      .XoOOOOOOOOOOOOOOOOOOOOOO",
"      .XoOOOOOOOOOOOOOOOOOOOOOO",
"      .XoOOOOOOOOOOOOOOOOOOOOOO",
"      .XoOOOOOOOOOOOOOOOOOOOOOO",
"      .X+OOOOOOOOOOOOOOOOOOOOOO",
"      @#$%%%%%%%%%%%%%%%%%%%%%%",
"      @&*======================",
"      @-;======================",
"      @-;======================",
"      @-;======================",
"      :>,<<<<<<<<<<<<<<<<<<<<<<",
"      1234444444444444444444444",
"      5678888888888888888888888",
"      5908888888888888888888888",
"      5908888888888888888888888",
"      5908888888888888888888888",
"      5908888888888888888888888"
};
