/* XPM */
static char *af[] = {
/* columns rows colors chars-per-pixel */
"31 18 176 2 ",
"   c #191919",
".  c #0B0B0B",
"X  c #0C0C0C",
"o  c #811A27",
"O  c #D92037",
"+  c #D21F35",
"@  c #9B373F",
"#  c #027251",
"$  c #0C6E4F",
"%  c #0C6D4F",
"&  c #167357",
"*  c gray5",
"=  c black",
"-  c #7A0E1C",
";  c #D6142C",
":  c #CF132A",
">  c #972D35",
",  c #006A48",
"<  c #006546",
"1  c #0A6C4E",
"2  c #0E0E0E",
"3  c #7B0F1C",
"4  c #D7152C",
"5  c #CF142B",
"6  c #CE1028",
"7  c #CE0F26",
"8  c #CE1027",
"9  c #CF1229",
"0  c #972E35",
"q  c #006B48",
"w  c #006647",
"e  c #0B6C4F",
"r  c #D12036",
"t  c #D84053",
"y  c #DB5163",
"u  c #D94557",
"i  c #D42B3F",
"p  c #CF132B",
"a  c #7B0E1C",
"s  c #D7152D",
"d  c #D2253B",
"f  c #E16F7D",
"g  c #E1707E",
"h  c #E37B88",
"j  c #E27481",
"k  c #DE5E6E",
"l  c #D53246",
"z  c #CF142A",
"x  c #972C34",
"c  c #006B49",
"v  c #7D1C28",
"b  c #EE8D99",
"n  c #D0182F",
"m  c #D42F43",
"M  c #E27684",
"N  c #E998A2",
"B  c #9A3E44",
"V  c #006947",
"C  c #040404",
"Z  c #9E7075",
"A  c #EC8794",
"S  c #D0172E",
"D  c #D53044",
"F  c #D7384C",
"G  c #DA5060",
"H  c #D63649",
"J  c #D22338",
"K  c #CE1229",
"L  c #E68490",
"P  c #B59796",
"I  c #026B4C",
"U  c #006646",
"Y  c #2C2C2C",
"T  c #D8AEB3",
"R  c #D73145",
"E  c #D11B31",
"W  c #E47B88",
"Q  c #E8939D",
"!  c #E9939D",
"~  c #ECA3AB",
"^  c #DD5869",
"/  c #D22137",
"(  c #D6B3B6",
")  c #3A8D75",
"_  c #006444",
"`  c #363737",
"'  c #D9ABB0",
"]  c #D52339",
"[  c #E06775",
"{  c #EFB5BC",
"}  c #EFB4BB",
"|  c #EDA9B1",
" . c #EEAFB6",
".. c #DC5465",
"X. c #D4A4A8",
"o. c #41937A",
"O. c #006445",
"+. c gray21",
"@. c #BD7F85",
"#. c #DA384C",
"$. c #D84154",
"%. c #EFB2BA",
"&. c #E88F99",
"*. c #E06A79",
"=. c #E68894",
"-. c #E996A1",
";. c #DA4D5E",
":. c #D12035",
">. c #C99094",
",. c #358C72",
"<. c #006545",
"1. c #393939",
"2. c #D1ABB0",
"3. c #E67482",
"4. c #D01A30",
"5. c #E78B97",
"6. c #EFB3BA",
"7. c #EEB1B8",
"8. c #F1BCC2",
"9. c #DF6473",
"0. c #D3263C",
"q. c #D7B7B9",
"w. c #3D8E76",
"e. c #030404",
"r. c #BF9B9F",
"t. c #ED97A2",
"y. c #D7394D",
"u. c #DF6272",
"i. c #DF6573",
"p. c #EA98A2",
"a. c #E16D7B",
"s. c #DD5767",
"d. c #D6374B",
"f. c #EA98A1",
"g. c #C2AEAC",
"h. c #127457",
"j. c #7C2732",
"k. c #EC7E8B",
"l. c #EEAFB7",
"z. c #E37B87",
"x. c #D73B4E",
"c. c #DC5262",
"v. c #DA4C5E",
"b. c #E37985",
"n. c #E37481",
"m. c #9E565A",
"M. c #006643",
"N. c #7C1521",
"B. c #E24C5E",
"V. c #E06977",
"C. c #E47A88",
"Z. c #E5818D",
"A. c #E37684",
"S. c #E06C7A",
"D. c #DC5061",
"F. c #98333B",
"G. c #7B101E",
"H. c #D81B33",
"J. c #D0172D",
"K. c #D42A3F",
"L. c #D53347",
"P. c #D42D42",
"I. c #D0162D",
"U. c #D11C32",
"Y. c #973037",
"T. c #D7142C",
"R. c #131313",
"E. c gray2",
"W. c #7E1421",
"Q. c #D71A31",
"!. c #D01930",
"~. c #99323A",
"^. c #006E4C",
"/. c #05694B",
"(. c #106F53",
"). c white",
/* pixels */
"  . X X X X X X X X o O + + + + + + + + @ # $ $ $ $ $ $ $ % & ",
"* = = = = = = = = = - ; : : : : : : : : > , < < < < < < < < 1 ",
"2 = = = = = = = = = 3 4 5 : 6 7 8 9 5 5 0 q w w w w w w w w e ",
"2 = = = = = = = = = 3 ; 9 r t y u i : p 0 q w w w w w w w w e ",
"2 = = = = = = = = = a s d f g h j k l z x c w w w w w w w w e ",
"2 = = = = = = = = = v b f n m f y 9 M N B V w w w w w w w w e ",
"2 = = = = = = = = C Z A S D F G H J K L P I U w w w w w w w e ",
"2 = = = = = = = = Y T R E W Q ! ~ ^ / + ( ) _ w w w w w w w e ",
"2 = = = = = = = = ` ' ] [ { } g |  ...E X.o.O.w w w w w w w e ",
"2 = = = = = = = = +.@.#.$.%.&.*.=.-.;.:.>.,.<.w w w w w w w e ",
"2 = = = = = = = = 1.2.3.4.5.6.7.8.9.0.f q.w.O.w w w w w w w e ",
"2 = = = = = = = = e.r.t.y.u.i.p.a.s.d.f.g.h.< w w w w w w w e ",
"2 = = = = = = = = = j.k.l.z.x.c.v.b.6.n.m.M.w w w w w w w w e ",
"2 = = = = = = = = = N.B.V.9.C.Z.A.S.u.D.F., w w w w w w w w e ",
"2 = = = = = = = = = G.H.J.r K.L.P.:.I.U.Y.q w w w w w w w w e ",
"2 = = = = = = = = = 3 T.5 : : : : : 5 5 0 q w w w w w w w w e ",
"2 = = = = = = = = = 3 T.5 5 5 5 5 5 5 5 0 q w w w w w w w w e ",
"R.C E.E.E.E.E.E.E.E.W.Q.!.!.!.!.!.!.!.!.~.^././././././././.(."
};
