/* XPM */
static char *al[] = {
/* columns rows colors chars-per-pixel */
"31 18 104 2 ",
"   c #CE1126",
".  c #D31127",
"X  c #CF1126",
"o  c #D51227",
"O  c #D71228",
"+  c #D41127",
"@  c #D21127",
"#  c #8D0C1A",
"$  c #CD1126",
"%  c #C61025",
"&  c #7E0A17",
"*  c #610812",
"=  c #8F0C1A",
"-  c #D31227",
";  c #970D1C",
":  c #5B0811",
">  c #860B18",
",  c #C41024",
"<  c #A30E1E",
"1  c #CA1125",
"2  c #D11127",
"3  c #9E0D1D",
"4  c #640812",
"5  c #740A15",
"6  c #650913",
"7  c #660813",
"8  c #150204",
"9  c #A60E1F",
"0  c #37050B",
"q  c #620812",
"w  c #760A16",
"e  c #6A0914",
"r  c #9D0D1D",
"t  c #830B18",
"y  c #560710",
"u  c black",
"i  c #7C0A17",
"p  c #3B050B",
"a  c #51070F",
"s  c #50070F",
"d  c #660812",
"f  c #870B19",
"g  c #8A0B19",
"h  c #4A070E",
"j  c #010000",
"k  c #41050D",
"l  c #6F0A14",
"z  c #8C0C1A",
"x  c #49060E",
"c  c #3F050B",
"v  c #6D0914",
"b  c #D01126",
"n  c #960C1C",
"m  c #43060C",
"M  c #0B0102",
"N  c #040001",
"B  c #47060D",
"V  c #990D1C",
"C  c #B30F21",
"Z  c #790A16",
"A  c #4F070F",
"S  c #52070F",
"D  c #41060C",
"F  c #030001",
"G  c #4C060E",
"H  c #42060C",
"J  c #48060D",
"K  c #7F0B17",
"L  c #AF0E21",
"P  c #BB0F22",
"I  c #BE1023",
"U  c #9B0D1D",
"Y  c #130204",
"T  c #7B0A16",
"R  c #280307",
"E  c #54070F",
"W  c #270307",
"Q  c #C21024",
"!  c #760916",
"~  c #A30D1E",
"^  c #6A0913",
"/  c #630813",
"(  c #7E0B17",
")  c #800A18",
"_  c #730916",
"`  c #590811",
"'  c #910C1B",
"]  c #730915",
"[  c #650813",
"{  c #8F0C1B",
"}  c #BF1024",
"|  c #8B0C1A",
" . c #2B0408",
".. c #9A0D1C",
"X. c #AD0E20",
"o. c #A10D1E",
"O. c #C11024",
"+. c #880C19",
"@. c #230307",
"#. c #810B18",
"$. c #C01023",
"%. c #950C1B",
"&. c #C91125",
"*. c white",
/* pixels */
"                                                              ",
"                                                              ",
"                  . X X o O +   . O + X X @                   ",
"                @ # $ % & * = - ; : > , % < 1                 ",
"                2 3 4 5 6 7 8 9 0 : q w e r X                 ",
"                . t * y u i p u a s u y d f                   ",
"                . g 7 h u j u u j u u k l # X                 ",
"                @ z q x u u u u u u u c v # b                 ",
"                @ n * m M N u u u j M B * V b                 ",
"                b C Z A S D u u F G H J K L b                 ",
"                X P * I U Y T R E W 3 Q ! 9 b                 ",
"                2 ~ ^ / ( ) _ u ` ' ] v [ ~ $                 ",
"                  2 {   } |  .F W ..X.. o.O.X                 ",
"                    + X 2 Q +.@.#.$.2   @ X                   ",
"                          X X %.&.b                           ",
"                              X X                             ",
"                                                              ",
"                                                              "
};
