/* XPM */
static char *ar[] = {
/* columns rows colors chars-per-pixel */
"31 18 43 1 ",
"  c #75AADB",
". c #FDFEFE",
"X c #FDFEFF",
"o c #FCFCFD",
"O c #FAF7F4",
"+ c #F6EFE7",
"@ c #F9F6F3",
"# c white",
"$ c #F7EBDD",
"% c #EBCBA4",
"& c #E9C18A",
"* c #EBCBA2",
"= c #F8EEE1",
"- c #FFFFFE",
"; c #FCFAF7",
": c #EDD4B5",
"> c #E2AA59",
", c #E6A640",
"< c #E3AD5D",
"1 c #EBD1B1",
"2 c #FDFCF9",
"3 c #FBF7F2",
"4 c #EFD4B4",
"5 c #DFA758",
"6 c #E8A63A",
"7 c #E4AE5D",
"8 c #EACFAC",
"9 c #FEFCFA",
"0 c #F6EADD",
"q c #EACAA1",
"w c #E7C292",
"e c #EACCA4",
"r c #FFFEFE",
"t c #FAFCFE",
"y c #F9FCFD",
"u c #F7F6F6",
"i c #F1EAE0",
"p c #F6F4F2",
"a c #7FB0DE",
"s c #7FB1DE",
"d c #80B1E0",
"f c #7FB1DF",
"g c #73A9DB",
/* pixels */
"                               ",
"                               ",
"                               ",
"                               ",
"                               ",
"                               ",
"............XoO+@o.............",
"#############$%&*=-############",
"############;:>,<12############",
"############3456789############",
"#############0qwe0r############",
"tttttttttttttyuiptttttttttttttt",
"aaaaaaaaaaaaaasdfaaaaaaaaaaaaaa",
"ggggggggggggggggggggggggggggggg",
"                               ",
"                               ",
"                               ",
"                               "
};
