/* XPM */
static char *ara[] = {
/* columns rows colors chars-per-pixel */
"31 18 164 2 ",
"   c #006233",
".  c #006131",
"X  c #036033",
"o  c #005D2D",
"O  c #005F31",
"+  c #006132",
"@  c #005F2E",
"#  c #0B6137",
"$  c #759787",
"%  c #6D917F",
"&  c #6A907E",
"*  c #0D643B",
"=  c #00602F",
"-  c #005E2E",
";  c #367959",
":  c #8FA09A",
">  c #9CA7A3",
",  c #698D7C",
"<  c #9AA8A3",
"1  c #8DA199",
"2  c #337757",
"3  c #005B2C",
"4  c #1A6A43",
"5  c #97A7A1",
"6  c #809E86",
"7  c #47804A",
"8  c #1C6D2E",
"9  c #1D6E2E",
"0  c #1E6D2B",
"q  c #49834E",
"w  c #7D9C87",
"e  c #9DABA5",
"r  c #226D49",
"t  c #006031",
"y  c #28714F",
"u  c #A4AEA9",
"i  c #608F68",
"p  c #176B2E",
"a  c #116E41",
"s  c #056539",
"d  c #1A7249",
"f  c #1B734B",
"g  c #076739",
"h  c #1D6E2D",
"j  c #4C8259",
"k  c #9EA8A4",
"l  c #3E8161",
"z  c #00592A",
"x  c #92A69D",
"c  c #678F75",
"v  c #307A40",
"b  c #35835E",
"n  c #3B8663",
"m  c #3C8762",
"M  c #74A990",
"N  c #49906E",
"B  c #59987A",
"V  c #398664",
"C  c #307B40",
"Z  c #5A8767",
"A  c #799689",
"S  c #10693E",
"D  c #006130",
"F  c #246E4B",
"G  c #A7B4AD",
"H  c #447E54",
"J  c #549366",
"K  c #509474",
"L  c #33815B",
"P  c #7DAE97",
"I  c #67A286",
"U  c #569778",
"Y  c #66A184",
"T  c #448B69",
"R  c #7CAE94",
"E  c #3D7A41",
"W  c #A1ACA9",
"Q  c #20704A",
"!  c #1D6E47",
"~  c #A1ADA8",
"^  c #2A7040",
"/  c #73A681",
"(  c #80B19A",
")  c #478E6D",
"_  c #74A98F",
"`  c #84B39D",
"'  c #70A78C",
"]  c #4B906F",
"[  c #90BBA7",
"{  c #7FB199",
"}  c #34773C",
"|  c #8A9F97",
" . c #1C6E47",
".. c #015C31",
"X. c #A1AFA8",
"o. c #618C70",
"O. c #44864D",
"+. c #CEE2DA",
"@. c #70A78D",
"#. c #308059",
"$. c #146E43",
"%. c #20764D",
"&. c #8BB8A2",
"*. c #ECF3F2",
"=. c #2C773D",
"-. c #53825F",
";. c #8CA299",
":. c #146940",
">. c #005F2F",
",. c #56886F",
"<. c #8EA199",
"1. c #3E7A4C",
"2. c #498C5C",
"3. c #DDE9E3",
"4. c #EDF5F1",
"5. c #D0E2D9",
"6. c #EEF5F1",
"7. c #D7E6DF",
"8. c #3E8450",
"9. c #2C743D",
"0. c #A9B3B1",
"q. c #42785E",
"w. c #046135",
"e. c #93B1A2",
"r. c #9FB3AC",
"t. c #598A63",
"y. c #2E773C",
"u. c #518E62",
"i. c #6BA07B",
"p. c #528F61",
"a. c #2F773E",
"s. c #50835D",
"d. c #ADBEB8",
"f. c #87A898",
"g. c #186D44",
"h. c #006232",
"j. c #005C2E",
"k. c #4F8169",
"l. c #BCC5C2",
"z. c #9BB4A9",
"x. c #7E9986",
"c. c #8CA892",
"v. c #7F9E89",
"b. c #A4B8AF",
"n. c #C3C6C6",
"m. c #497F65",
"M. c #136A40",
"N. c #6A9681",
"B. c #849D91",
"V. c #628475",
"C. c #598872",
"Z. c #668A7A",
"A. c #7D998C",
"S. c #88A697",
"D. c #036335",
"F. c #0A673A",
"G. c #0F683E",
"H. c #076337",
"J. c #036234",
"K. c #086438",
"L. c #0D673C",
"P. c #0E693D",
"I. c #006133",
"U. c white",
/* pixels */
"                                                              ",
"                                                              ",
"                          . X o O +                           ",
"                        @ # $ % & * =                         ",
"                    + - ; : > , < 1 2 3 +                     ",
"                    4 5 6 7 8 9 0 q w e r t                   ",
"                . y u i p a s d f g h j k l .                 ",
"                z x c v b n m M N B V C Z A S                 ",
"              D F G H J K L P I U Y T R E W Q                 ",
"              . ! ~ ^ / ( ) _ ` ' ] [ { } |  .                ",
"                ..X.o.O.+.@.#.$.%.&.*.=.-.;.:.                ",
"                >.,.<.1.2.3.4.5.6.7.8.9.0.q.                  ",
"                  w.e.r.t.y.u.i.p.a.s.d.f.g..                 ",
"                  h.j.k.l.z.x.c.v.b.n.m.j..                   ",
"                    + M.N.B.V.C.Z.A.S.3                       ",
"                      D.F.G.H.J.K.L.P.I.                      ",
"                                                              ",
"                                                              "
};
