/* XPM */
static char *az[] = {
/* columns rows colors chars-per-pixel */
"31 18 53 1 ",
"  c #0092C7",
". c #E6073A",
"X c #E60639",
"o c #E6093B",
"O c #EA3A62",
"+ c #ED5E7F",
"@ c #E8204D",
"# c #E60437",
"$ c #EB0336",
"% c #EB0031",
"& c #F25678",
"* c #FBBECB",
"= c #EF335C",
"- c #EE1D4B",
"; c #ED1A49",
": c #EC0D3E",
"> c #EA0437",
", c #E90033",
"< c #F9BDCB",
"1 c #EF3962",
"2 c #EA0033",
"3 c #ED204D",
"4 c #F9B5C4",
"5 c #F15073",
"6 c #EA0538",
"7 c #EA0032",
"8 c #FABFCC",
"9 c #EE3860",
"0 c #EA0236",
"q c #EC1D4B",
"w c #F9B1C1",
"e c #F04A6F",
"r c #E90032",
"t c #F25D7E",
"y c #FAC0CD",
"u c #EB0C3E",
"i c #EA0438",
"p c #EB1242",
"a c #EA083A",
"s c #E10B39",
"d c #E00232",
"f c #E74E6F",
"g c #ED94A7",
"h c #E53F63",
"j c #E10636",
"k c #E10A39",
"l c #11A265",
"z c #109D60",
"x c #10985D",
"c c #119E62",
"v c #00B069",
"b c #00AE68",
"n c white",
/* pixels */
"                               ",
"                               ",
"                               ",
"                               ",
"                               ",
"                               ",
"...........XoO+@#X.............",
"$$$$$$$$$$$%&*=-;:$$$$$$$$$$$$$",
">>>>>>>>>>>,<123456>>>>>>>>>>>>",
">>>>>>>>>>>7890qwe>>>>>>>>>>>>>",
">>>>>>>>>>>rtyuipa>>>>>>>>>>>>>",
"ssssssssssssdfghjksssssssssssss",
"lllllllllllllzxclllllllllllllll",
"vvvvvvvvvvvvvvvvvvvvvvvvvvvvvvv",
"bbbbbbbbbbbbbbbbbbbbbbbbbbbbbbb",
"bbbbbbbbbbbbbbbbbbbbbbbbbbbbbbb",
"bbbbbbbbbbbbbbbbbbbbbbbbbbbbbbb",
"bbbbbbbbbbbbbbbbbbbbbbbbbbbbbbb"
};
