/* XPM */
static char *ba[] = {
/* columns rows colors chars-per-pixel */
"31 18 117 2 ",
"   c #171796",
".  c #131394",
"X  c #4646AB",
"o  c #B7B7DF",
"O  c #5050B0",
"+  c #1B1CA1",
"@  c #806E5D",
"#  c #F4CE19",
"$  c #F7D117",
"%  c #FCD514",
"&  c #BA9E3B",
"*  c #0F109A",
"=  c #161696",
"-  c #22229B",
";  c #0E0E92",
":  c #6A6ABC",
">  c #A3A3D5",
",  c #3032AF",
"<  c #907B50",
"1  c #F9D216",
"2  c #F8D216",
"3  c #161695",
"4  c #5F5FB7",
"5  c #D3D3EB",
"6  c #2F2FA1",
"7  c #2626A1",
"8  c #988148",
"9  c #FED714",
"0  c #4040A9",
"q  c #6464B9",
"w  c #A8A8D9",
"e  c #4E4BA3",
"r  c #A98F3F",
"t  c #FED713",
"y  c #7B7BC4",
"u  c #FDFDFE",
"i  c #1B1B99",
"p  c #2E2A87",
"a  c #CAAB31",
"s  c #F9D316",
"d  c #4545AB",
"f  c #3737A4",
"g  c #3C3CA7",
"h  c #5859B8",
"j  c #39327E",
"k  c #E4C222",
"l  c #141495",
"z  c #A2A2D5",
"x  c #ECECF6",
"c  c #4547B4",
"v  c #544973",
"b  c #EFCA1C",
"n  c #5050AF",
"m  c #2E30AC",
"M  c #73656B",
"N  c #F1CC19",
"B  c #FAD316",
"V  c #191997",
"C  c #9898D1",
"Z  c #BEBEE1",
"A  c #2424A1",
"S  c #77665A",
"D  c #F8D217",
"F  c #7676C1",
"G  c #A7A7D8",
"H  c #3D3CA2",
"J  c #8F794C",
"K  c #1A1A97",
"L  c #25259D",
"P  c #9696D0",
"I  c #C1C1E4",
"U  c #4544A2",
"Y  c #B69A39",
"T  c #101093",
"R  c #8989C9",
"E  c #C9C9E6",
"W  c #141597",
"Q  c #282590",
"!  c #D7B629",
"~  c #151595",
"^  c #3838A5",
"/  c #20209A",
"(  c #7A7AC3",
")  c #595AB9",
"_  c #383388",
"`  c #E0BE24",
"'  c #FBD515",
"]  c #141494",
"[  c #25259C",
"{  c #B3B3DD",
"}  c #C9C9E7",
"|  c #2526A3",
" . c #484079",
".. c #E3C021",
"X. c #3B3BA6",
"o. c #5454B1",
"O. c #5657B5",
"+. c #6D6172",
"@. c #EBC71D",
"#. c #FFD713",
"$. c #CACAE7",
"%. c #C3C3E4",
"&. c #7A695B",
"*. c #BA9E3A",
"=. c #111193",
"-. c #7878C2",
";. c #21219B",
":. c #3737A9",
">. c #A68D43",
",. c #B99D3B",
"<. c #26269C",
"1. c #C2C2E3",
"2. c #B5B5DF",
"3. c #29299E",
"4. c #887457",
"5. c #111299",
"6. c white",
/* pixels */
"      . X o O + @ # $ $ $ $ $ $ $ $ $ $ $ $ % & *             ",
"      = - ; : > , < 1 2 $ $ $ $ $ $ $ $ $ $ % & *             ",
"        3   4 5 6 7 8 9 $ $ $ $ $ $ $ $ $ $ % & *             ",
"            - 0 q w e r t $ $ $ $ $ $ $ $ $ % & *             ",
"            = ; y u i p a s $ $ $ $ $ $ $ $ % & *             ",
"              . d f g h j k $ $ $ $ $ $ $ $ % & *             ",
"                l = z x c v b 1 $ $ $ $ $ $ % & *             ",
"                    d y n m M N B $ $ $ $ $ % & *             ",
"                    V = C Z A S D 2 $ $ $ $ % & *             ",
"                      . F G ; H J B $ $ $ $ % & *             ",
"                        K L P I U Y $ $ $ $ % & *             ",
"                          T R E W Q ! D $ $ % & *             ",
"                          ~ ^ / ( ) _ ` ' $ % & *             ",
"                            ] [ { } |  ...% % & *             ",
"                              K X.o.q O.+.@.#.& *             ",
"                                ~   $.%.~ &.2 *.*             ",
"                                  =.F -.;.:.>.,.*             ",
"                                    =.<.1.2.3.4.5.            "
};
