/* XPM */
static char *bd[] = {
/* columns rows colors chars-per-pixel */
"31 18 67 1 ",
"  c #0A5C12",
". c #095C12",
"X c #065D12",
"o c #055E12",
"O c #075D12",
"+ c #006112",
"@ c #075E12",
"# c #2A5012",
"$ c #344C11",
"% c #255212",
"& c #016012",
"* c #006012",
"= c #085D12",
"- c #285111",
"; c #9C2510",
": c #DE0C0F",
"> c #E5090F",
", c #E7080F",
"< c #E4090F",
"1 c #D60F0F",
"2 c #842E11",
"3 c #175712",
"4 c #643A11",
"5 c #F0050F",
"6 c #FC000F",
"7 c #FE000F",
"8 c #DD0C0F",
"9 c #3A4A11",
"0 c #504111",
"q c #F4030F",
"w c #FF000F",
"e c #245312",
"r c #165712",
"t c #B91A10",
"y c #942810",
"u c #205412",
"i c #E30A10",
"p c #025F12",
"a c #F40310",
"s c #E20A10",
"d c #035F12",
"f c #BA190F",
"g c #982711",
"h c #514111",
"j c #F3030F",
"k c #FD000F",
"l c #EA0710",
"z c #215412",
"x c #6C3711",
"c c #DE0B10",
"v c #FA010F",
"b c #D31010",
"n c #414712",
"m c #3B4A12",
"M c #902910",
"N c #BC1810",
"B c #DA0D10",
"V c #D01110",
"C c #B41B10",
"Z c #802F11",
"A c #045E12",
"S c #1F5412",
"D c #324D12",
"F c #384B12",
"G c #304E12",
"H c #195612",
"J c white",
/* pixels */
"                               ",
"                               ",
"          .XoO.                ",
"        X+@#$%&*=              ",
"       *-;:>,<123o             ",
"      O45666666789             ",
"      0q76666666w>e            ",
"     rtw666666666wyo           ",
"     uq7666666666wip           ",
"     ua7666666666wsd           ",
"     3fw666666666wgo           ",
"     .hjk66666667lz            ",
"      =xc7ww7wwvbn.            ",
"      .*mMNbBVCZ%A             ",
"        odSDFGHpO              ",
"          .===.                ",
"                               ",
"                               "
};
