/* XPM */
static char *ben[] = {
/* columns rows colors chars-per-pixel */
"31 18 73 1 ",
"  c #006A4E",
". c #006B4E",
"X c #006C4E",
"o c #10664D",
"O c #27604C",
"+ c #25604C",
"@ c #0E664D",
"# c #006D4F",
"$ c #19634D",
"% c #894747",
"& c #BA3944",
"* c #CA3543",
"= c #C93543",
"- c #B73A44",
"; c #804948",
": c #13654D",
"> c #385C4B",
", c #DD3043",
"< c #F22A41",
"1 c #F72941",
"2 c #F62941",
"3 c #F22B41",
"4 c #D23343",
"5 c #24614C",
"6 c #22614C",
"7 c #EE2C41",
"8 c #F42A41",
"9 c #E32E42",
"0 c #0A674D",
"q c #006C4F",
"w c #B53B44",
"e c #F92941",
"r c #994246",
"t c #2A5F4C",
"y c #DE3042",
"u c #E92D42",
"i c #07684E",
"p c #4E564A",
"a c #E62E42",
"s c #EC2C41",
"d c #325D4B",
"f c #4E554A",
"g c #EB2C41",
"h c #2B5F4C",
"j c #DC3042",
"k c #EA2C41",
"l c #B63A44",
"z c #F82941",
"x c #9C4146",
"c c #2C5E4C",
"v c #DF2F42",
"b c #FA2941",
"n c #D83143",
"m c #11664D",
"M c #44584A",
"N c #C83643",
"B c #FD2840",
"V c #FB2841",
"C c #FA2841",
"Z c #C03844",
"A c #2E5E4C",
"S c #23614C",
"D c #6E4E48",
"F c #AF3C45",
"G c #CF3443",
"H c #CD3543",
"J c #AA3E45",
"K c #674F49",
"L c #1A634D",
"P c #026A4E",
"I c #18644D",
"U c #016A4E",
"Y c white",
/* pixels */
"                               ",
"             ..                ",
"          .XoO+@#.             ",
"         .$%&*=-;:.            ",
"        X>,<1221345.           ",
"       .678888888290           ",
"       qw888888888er#          ",
"      .ty8888888888ui          ",
"      Xpa8888888888sd.         ",
"      Xfa8888888888gd.         ",
"      .hj8888888888ki.         ",
"       #l888888888zx#          ",
"       .cve888888bnm           ",
"        #MNBVzzVCZA.           ",
"         XSDFGHJKL.            ",
"           PmIIoU.             ",
"                               ",
"                               "
};
