/* XPM */
static char *bh[] = {
/* columns rows colors chars-per-pixel */
"31 18 76 1 ",
"  c white",
". c #FEFBFB",
"X c #EFB3B9",
"o c #DA4B5B",
"O c #CF182D",
"+ c #CF1529",
"@ c #CE1126",
"# c #F9E2E4",
"$ c #E06977",
"% c #D0192D",
"& c #FEF9F9",
"* c #F4CBD0",
"= c #EA99A1",
"- c #DD5B6A",
"; c #D11E31",
": c #CE1026",
"> c #FEF7F8",
", c #E9909A",
"< c #D22438",
"1 c #CB031A",
"2 c #CC091F",
"3 c #CE1025",
"4 c #FFFDFD",
"5 c #FBECED",
"6 c #F4CDD1",
"7 c #E16E7B",
"8 c #D01A2F",
"9 c #CD0E23",
"0 c #FFFEFE",
"q c #F2BDC3",
"w c #D32B3E",
"e c #FAE9EB",
"r c #EB9CA6",
"t c #D73B4C",
"y c #CB061B",
"u c #CE0F24",
"i c #FEF8F9",
"p c #E5838E",
"a c #D63749",
"s c #D0182D",
"d c #CC0A1F",
"f c #F1B8BF",
"g c #E37884",
"h c #D12134",
"j c #EFB1B8",
"k c #DC5161",
"l c #CF162B",
"z c #FDF3F4",
"x c #E47D88",
"c c #D12136",
"v c #CF172C",
"b c #CE1227",
"n c #FAE7E9",
"m c #E68690",
"M c #D2283B",
"N c #CF162A",
"B c #FEFBFC",
"V c #E88E98",
"C c #D22337",
"Z c #F8DDE0",
"A c #EFAFB6",
"S c #E27581",
"D c #D53446",
"F c #FEFAFA",
"G c #ECA4AC",
"H c #D42A3D",
"J c #C90010",
"K c #FCF3F4",
"L c #F9E2E5",
"P c #EDA6AE",
"I c #D94556",
"U c #CE1327",
"Y c #E8909A",
"T c #D22539",
"R c #F5CDD1",
"E c #CC081E",
/* pixels */
"       .XoO+@@@@@@@@@@@@@@@@@@@",
"          #$%@@@@@@@@@@@@@@@@@@",
"        &*=-;:@@@@@@@@@@@@@@@@@",
"       >,<123@@@@@@@@@@@@@@@@@@",
"       456789@@@@@@@@@@@@@@@@@@",
"          0qw3@@@@@@@@@@@@@@@@@",
"       0ertyu@@@@@@@@@@@@@@@@@@",
"       ipasd3@@@@@@@@@@@@@@@@@@",
"         efgh3@@@@@@@@@@@@@@@@@",
"          jkl@@@@@@@@@@@@@@@@@@",
"       zxcvb@@@@@@@@@@@@@@@@@@@",
"        nmMNb@@@@@@@@@@@@@@@@@@",
"          BVC3@@@@@@@@@@@@@@@@@",
"       4ZASDb@@@@@@@@@@@@@@@@@@",
"       FGHJ2@@@@@@@@@@@@@@@@@@@",
"       0KLPIU@@@@@@@@@@@@@@@@@@",
"          KYT3@@@@@@@@@@@@@@@@@",
"       0R$@E3@@@@@@@@@@@@@@@@@@"
};
