/* XPM */
static char *br[] = {
/* columns rows colors chars-per-pixel */
"31 18 189 2 ",
"   c #00923F",
".  c #009140",
"X  c #09943D",
"o  c #009041",
"O  c #0B943C",
"+  c #55A32A",
"@  c #95B019",
"#  c #57A329",
"$  c #009141",
"%  c #51A22B",
"&  c #B7B90F",
"*  c #F8C900",
"=  c #FFCE00",
"-  c #F7C900",
";  c #B8B90F",
":  c #009042",
">  c #309C33",
",  c #B9B810",
"<  c #F6C700",
"1  c #CB9D18",
"2  c #957036",
"3  c #83613F",
"4  c #957035",
"5  c #D0A116",
"6  c #F2C700",
"7  c #BEB90E",
"8  c #389D31",
"9  c #199739",
"0  c #A5B315",
"q  c #FDC500",
"w  c #DDAC0F",
"e  c #5A4055",
"r  c #29176F",
"t  c #28166F",
"y  c #241371",
"u  c #573E56",
"i  c #E6B40A",
"p  c #F6C400",
"a  c #03933E",
"s  c #1D9838",
"d  c #81AB1E",
"f  c #F7C301",
"g  c #FDC400",
"h  c #E5B610",
"j  c #574463",
"k  c #2D227A",
"l  c #332676",
"z  c #332476",
"x  c #2E1D73",
"c  c #291770",
"v  c #27156E",
"b  c #241271",
"n  c #392466",
"m  c #E2B10C",
"M  c #FFC700",
"N  c #F7C300",
"B  c #7FAB1F",
"V  c #189739",
"C  c #04933E",
"Z  c #009240",
"A  c #269A35",
"S  c #70A823",
"D  c #DEBE07",
"F  c #FFC600",
"G  c #F9C300",
"H  c #F8C300",
"J  c #B8A157",
"K  c #697BA7",
"L  c #7581A0",
"P  c #717D9C",
"I  c #777BA2",
"U  c #6E6B9D",
"Y  c #5D5C91",
"T  c #4B4685",
"R  c #2E1E73",
"E  c #23106D",
"W  c #6F5149",
"Q  c #FEC800",
"!  c #FFC500",
"~  c #E5BF05",
"^  c #73A922",
"/  c #249936",
"(  c #15963A",
")  c #CFBB0A",
"_  c #FCC400",
"`  c #574068",
"'  c #34237B",
"]  c #2E1A73",
"[  c #3A297C",
"{  c #3C2F7C",
"}  c #4E4788",
"|  c #646795",
" . c #6E749B",
".. c #7580A0",
"X. c #5A5E8F",
"o. c #4C335C",
"O. c #E7B408",
"+. c #FAC400",
"@. c #FBC400",
"#. c #FFC400",
"$. c #D3BB0A",
"%. c #83AC1E",
"&. c #06933E",
"*. c #60A527",
"=. c #E3BF06",
"-. c #F9C400",
";. c #48315E",
":. c #2B1A75",
">. c #2A1870",
",. c #28156F",
"<. c #322076",
"1. c #291670",
"2. c #41397F",
"3. c #646896",
"4. c #A7AB96",
"5. c #EEBA0E",
"6. c #5DA527",
"7. c #02933E",
"8. c #0D943C",
"9. c #74A922",
"0. c #F1C102",
"q. c #8B693C",
"w. c #241579",
"e. c #362578",
"r. c #352578",
"t. c #291870",
"y. c #27156F",
"u. c #26136E",
"i. c #423380",
"p. c #7E6456",
"a. c #FFCB00",
"s. c #F4C201",
"d. c #77A921",
"f. c #12953B",
"g. c #02923F",
"h. c #14963A",
"j. c #9CB117",
"k. c #EDC103",
"l. c #E4B10B",
"z. c #452E5F",
"x. c #291772",
"c. c #352478",
"v. c #2E1D74",
"b. c #2B1971",
"n. c #322176",
"m. c #48346E",
"M. c #DDAD0D",
"N. c #FAC500",
"B. c #F4C301",
"V. c #9AB118",
"C. c #11963B",
"Z. c #008F43",
"A. c #AEB513",
"S. c #E7C104",
"D. c #D9A712",
"F. c #604351",
"G. c #372266",
"H. c #2B186E",
"J. c #271571",
"K. c #2F1D71",
"L. c #3E2A6B",
"P. c #63485B",
"I. c #DBA90E",
"U. c #ECC402",
"Y. c #A9B414",
"T. c #2A9A34",
"R. c #45A02D",
"E. c #A8B713",
"W. c #E9BE05",
"Q. c #C3931E",
"!. c #967135",
"~. c #89663B",
"^. c #967134",
"/. c #C6931D",
"(. c #ECC102",
"). c #A7B613",
"_. c #459F2E",
"`. c #07933D",
"'. c #44A02D",
"]. c #A9B713",
"[. c #FFCC00",
"{. c #FFCA00",
"}. c #46A02D",
"|. c #07943D",
" X c #0D953C",
".X c #97B019",
"XX c #439F2E",
"oX c #01923F",
"OX c white",
/* pixels */
"                                                              ",
"                            . X .                             ",
"                        o O + @ # X $                         ",
"                    . . % & * = - ; % : $                     ",
"                  : > , < 1 2 3 4 5 6 7 8 :                   ",
"              . 9 0 q w e r t t t y u i p 0 9                 ",
"          a s d f g h j k l z x c v b n m M N B V C Z         ",
"      . A S D F G H J K L P I U Y T R E W Q G ! ~ ^ / .       ",
"    ( B ) ! _ H H G ` ' ] [ { } |  ...X.o.O.+.H @.#.$.%.X     ",
"    &.*.=.! G H H -.;.:.r >.,.<.1.R 2.3.4.5.-.H G F D 6.C     ",
"      7.8.9.0.g H H q.w.e.>.t r.t.y.u.i.p.a.H _ s.d.f.g.      ",
"          . h.j.k.N l.z.x.c.t v.b.n.c.m.M.N.B.V.C..           ",
"            Z Z.> A.S.D.F.G.H.J.K.L.P.I.U.Y.T.:               ",
"                . : R.E.W.Q.!.~.^./.(.)._.. .                 ",
"                    $ `.'.].a.[.{.E.}.|.o                     ",
"                        .  X8 .XXXO Z                         ",
"                              oX                              ",
"                                                              "
};
