/* XPM */
static char *brai[] = {
/* columns rows colors chars-per-pixel */
"31 18 7 1 ",
"  c #6599FF",
". c #659BFF",
"X c #6681DE",
"o c #66164F",
"O c #660031",
"+ c #660032",
"@ c white",
/* pixels */
"                               ",
"                               ",
"                               ",
"                               ",
"                               ",
"                               ",
"                               ",
"...............................",
"XXXXXXXXXXXXXXXXXXXXXXXXXXXXXXX",
"ooooooooooooooooooooooooooooooo",
"OOOOOOOOOOOOOOOOOOOOOOOOOOOOOOO",
"+++++++++++++++++++++++++++++++",
"+++++++++++++++++++++++++++++++",
"+++++++++++++++++++++++++++++++",
"+++++++++++++++++++++++++++++++",
"+++++++++++++++++++++++++++++++",
"+++++++++++++++++++++++++++++++",
"+++++++++++++++++++++++++++++++"
};
