/* XPM */
static char *bt[] = {
/* columns rows colors chars-per-pixel */
"31 18 256 2 ",
"   c #FF5F00",
".  c #F56302",
"X  c #F76504",
"o  c #FA6000",
"O  c #FD6000",
"+  c #FD6100",
"@  c #FE6000",
"#  c #FF6000",
"$  c #FF6100",
"%  c #FC6300",
"&  c #FF6200",
"*  c #FF6300",
"=  c #FB6400",
"-  c #F86403",
";  c #FA6402",
":  c #FA6503",
">  c #FC6400",
",  c #FD6400",
"<  c #FD6501",
"1  c #FE6400",
"2  c #FF6400",
"3  c #FF6500",
"4  c #FE6501",
"5  c #FF6600",
"6  c #FF6703",
"7  c #F86707",
"8  c #FF6A00",
"9  c #FE6B06",
"0  c #F7680B",
"q  c #FC6908",
"w  c #FC6909",
"e  c #FD6B0B",
"r  c #FA6A0C",
"t  c #F86C0F",
"y  c #FD6C0D",
"u  c #FC6D0F",
"i  c #FF7700",
"p  c #ED6B16",
"a  c #F66E13",
"s  c #F46F17",
"d  c #F96D11",
"f  c #F96E13",
"g  c #F06F1A",
"h  c #F6711A",
"j  c #F3711C",
"k  c #F5731D",
"l  c #FB7218",
"z  c #F9761F",
"x  c #EF7729",
"c  c #F17524",
"v  c #F57826",
"b  c #EE7F37",
"n  c #E17D3C",
"m  c #FF8800",
"M  c #FF9A00",
"N  c #FF9C01",
"B  c #FC8616",
"V  c #FFB500",
"C  c #FFBE00",
"Z  c #FABB08",
"A  c #E0B81F",
"S  c #EBBF19",
"D  c #EF8329",
"F  c #EF8037",
"G  c #EB8039",
"H  c #EE823B",
"J  c #E68D3F",
"K  c #FA8335",
"L  c #F58338",
"P  c #F0BE3A",
"I  c #F6C407",
"U  c #F8C300",
"Y  c #FAC600",
"T  c #FBC700",
"R  c #FFC800",
"E  c #FEC900",
"W  c #FFC900",
"Q  c #FFCA00",
"!  c #FFCB00",
"~  c #FECA01",
"^  c #FDC903",
"/  c #FFCA02",
"(  c #FECA03",
")  c #FBC805",
"_  c #FDC904",
"`  c #FCC805",
"'  c #FECA04",
"]  c #F5C408",
"[  c #F7C60B",
"{  c #F7C70E",
"}  c #FAC50A",
"|  c #FDCA0B",
" . c #FBC90C",
".. c #F0C315",
"X. c #F2C414",
"o. c #F5C716",
"O. c #F1C41D",
"+. c #F2C71F",
"@. c #F7C919",
"#. c #FBCD1A",
"$. c #EFC526",
"%. c #F3C723",
"&. c #F2C724",
"*. c #F5C920",
"=. c #F8CC20",
"-. c #F0C72E",
";. c #F1C92E",
":. c #ECC533",
">. c #EEC936",
",. c #E4C23E",
"<. c #DE8645",
"1. c #CE8454",
"2. c #D78752",
"3. c #DD8B55",
"4. c #E98340",
"5. c #E1884D",
"6. c #EA8A4C",
"7. c #E58950",
"8. c #E68F56",
"9. c #EF965B",
"0. c #EA965E",
"q. c #D5BB55",
"w. c #E4B543",
"e. c #DB9262",
"r. c #D29771",
"t. c #D69D78",
"y. c #E19564",
"u. c #DFAA69",
"i. c #D0BC6E",
"p. c #D4A07F",
"a. c #D6A27F",
"s. c #D6A47E",
"d. c #E6BC69",
"f. c #E7A275",
"g. c #ECA97D",
"h. c #F2A979",
"j. c #E0C045",
"k. c #E1C148",
"l. c #E8CB48",
"z. c #F6D24B",
"x. c #E9CA51",
"c. c #D7C068",
"v. c #DEC76E",
"b. c #D5C37B",
"n. c #DBC779",
"m. c #E4CA69",
"M. c #E3CB6E",
"N. c #EED165",
"B. c #E4C971",
"V. c #BCAEA4",
"C. c #B6B5A2",
"Z. c #BDBEB5",
"A. c #D5A586",
"S. c #DDAD82",
"D. c #D7AB8F",
"F. c #C4B98F",
"G. c #CEBC8A",
"H. c #CAAF9D",
"J. c #D6B197",
"K. c #DAB196",
"L. c #DFB295",
"P. c #D6B19A",
"I. c #D5B49D",
"U. c #E1A985",
"Y. c #E5B391",
"T. c #E9B491",
"R. c #E6B79B",
"E. c #EDBD9C",
"W. c #EDBE9F",
"Q. c #F1BF9E",
"!. c #C8BFA2",
"~. c #C7B6AB",
"^. c #D0BBA2",
"/. c #DAB8A5",
"(. c #D9BCAA",
"). c #CBBEB6",
"_. c #CEBFB5",
"`. c #C7BFBA",
"'. c #C0BEBC",
"]. c #C9BFB9",
"[. c #E6BFA5",
"{. c #DECE8B",
"}. c #CEC49D",
"|. c #D1C79A",
" X c #DBC99D",
".X c #D8CC9C",
"XX c #E4D498",
"oX c #E4D699",
"OX c #E6D39F",
"+X c #E5DC9E",
"@X c #C5C1A9",
"#X c #D5CBA7",
"$X c #DCC0AE",
"%X c #C9C4B2",
"&X c #CCCAB4",
"*X c #C3C2BD",
"=X c #C2C0BF",
"-X c #CCC8BC",
";X c #D5C7B6",
":X c #D5C4BA",
">X c #D4C6BC",
",X c #DCCABE",
"<X c #E1C3B0",
"1X c #E1C9BB",
"2X c #E3CABA",
"3X c #E5C9B9",
"4X c #ECE1AA",
"5X c #C2C2C3",
"6X c #C4C5C6",
"7X c #CBC5C1",
"8X c #CAC9C1",
"9X c #C4C6CD",
"0X c #CAC9C9",
"qX c #CDCFCB",
"wX c #CDCDCC",
"eX c #CFCECC",
"rX c #CFCECD",
"tX c #D6C9C0",
"yX c #D3CFC0",
"uX c #D4D1C1",
"iX c #DED0C7",
"pX c #C4C7D1",
"aX c #C4C9D4",
"sX c #CECFD5",
"dX c #C6CDD9",
"fX c #CACFDF",
"gX c #D0CFD0",
"hX c #C8D0D6",
"jX c #D0D0D0",
"kX c gray82",
"lX c #D2D2D3",
"zX c #D2D3D6",
"xX c #D5D4D4",
"cX c #D5D5D5",
"vX c #D7D7D7",
"bX c #DAD8D1",
"nX c #D0D8DF",
"mX c gray86",
"MX c #DDDDD8",
"NX c #DCDCDB",
"BX c #DFDEDA",
"VX c #E4D5CE",
"CX c #E4D7CF",
"ZX c #EFD9CB",
"AX c #EBDACE",
"SX c #EEDACD",
"DX c #E0DDD3",
"FX c #E9DFD7",
"GX c #E2E1DE",
"HX c #DFE1E2",
"JX c #DDE0E4",
"KX c #F5EFEA",
"LX c #ECEFF1",
"PX c #EDF1F4",
"IX c #EDF7FE",
"UX c #F9FEFF",
/* pixels */
"Q Q Q Q Q Q Q Q Q Q Q Q Q Q Q Q Q Q Q Q Q Q Q Q Q Q ~ Q W C m ",
"Q Q Q Q Q Q Q Q Q Q Q Q Q Q Q Q W )  .X.@.( W ! Q Q O.Z M 5 $ ",
"Q Q Q Q Q Q Q Q Q Q Q Q Q Q Q ' *.,.v.F..XN.z.A U } d.D   2 3 ",
"Q Q Q Q Q Q Q Q Q Q Q Q Q Q Q &.k.i.DXNXBXGXbXC.4XOXK.7.x - 3 ",
"Q Q Q Q Q Q Q Q Q Q Q Q Q Q I ..q.*XmXMX8XJXHXp.R.3Xp w q < 3 ",
"Q Q Q Q Q Q Q Q Q Q Q Q Q Q Q o.}.zX5X%XG.S.L.(.1.r.U.5.; 3 3 ",
"Q Q Q Q Q Q Q Q Q Q Q E | _ ` =.XXuXlXwX^.3.. A.a.AX[.d > 3 3 ",
"Q Q Q Q Q Q Q Q Q ^ #.:.{.m.c.x.S  XxXcXgXrX`.H.J.CX1XH 3 3 3 ",
"Q Q Q Q Q Q Q Q Q Y n.yXpXfXdXqX#X;X0XkX>Xy.P.8.k L K 6 3 3 3 ",
"Q Q Q Q Q Q Q Q Q -.eX9X|.B.s.:XnXhXvXjXI.7 f # 2 * * 3 3 3 3 ",
"Q Q Q Q Q Q Q Q ] b.sX!.w.J 1 e 0 2.=X7Xj   t 0.X 3 3 3 3 3 3 ",
"Q Q Q Q / Q Q Q >.-X6X~.VX<XY.@ = G t.]._.D.KX2X6.& 3 3 3 3 3 ",
"Q Q Q T ;.%.+.j.@X).tX'.$XSXZXs 2 * $ O g T.PXUXFXo 3 3 3 3 3 ",
"Q Q Q { M.&XZ.aX/.F e.V.n c r * 3 3 3 3 & z g.Q.h.% 3 3 3 3 3 ",
"Q E $.oX+Xu.<.9.l * b iX,Xf.h 2 3 3 3 3 3 * + : + 3 3 3 3 3 3 ",
"Q [ l.P B 9 , 4 2 3 v LXIX4.a 2 3 3 3 3 3 3 3 3 3 3 3 3 3 3 3 ",
"Q R N 8 3 3 3 3 3 3 u E.W.y 3 3 3 3 3 3 3 3 3 3 3 3 3 3 3 3 3 ",
"V i # 3 3 3 3 3 3 3 3 # # 3 3 3 3 3 3 3 3 3 3 3 3 3 3 3 3 3 3 "
};
