/* XPM */
static char *by[] = {
/* columns rows colors chars-per-pixel */
"31 18 77 1 ",
"  c #FDE3E4",
". c #F7A2A5",
"X c #FBCBCD",
"o c #F3656B",
"O c #ED1D25",
"+ c #ED1C24",
"@ c #FAC3C5",
"# c #F68C90",
"$ c #F8B0B3",
"% c #F25A60",
"& c #FAC0C3",
"* c #F68B8F",
"= c #F8AAAD",
"- c #F25C62",
"; c #FAC3C6",
": c #F68A8E",
"> c #F9AAAC",
", c #F25B61",
"< c #FBC4C6",
"1 c #F68E92",
"2 c #F8AFB1",
"3 c #F35E63",
"4 c #FAC0C2",
"5 c #EF3C42",
"6 c #F58A8E",
"7 c #F25B60",
"8 c #F8A4A7",
"9 c #F14D53",
"0 c #F4777C",
"q c #F25258",
"w c #FAC2C4",
"e c #F57C81",
"r c #FABDBF",
"t c #F47378",
"y c #F89FA2",
"u c #F9B3B5",
"i c #F4767B",
"p c #F7999D",
"a c #F2585E",
"s c #FBCACB",
"d c #F57B80",
"f c #F8A8AB",
"g c #F25D63",
"h c #F8A5A8",
"j c #F14C53",
"k c #F5767B",
"l c #EC565A",
"z c #E42227",
"x c #E42126",
"c c #FAC1C3",
"v c #F04148",
"b c #FF8992",
"n c #63AE7B",
"m c #129C4F",
"M c #129C4E",
"N c #FAC1C4",
"B c #F69094",
"V c #FFA3AC",
"C c #56B780",
"Z c #00A852",
"A c #00A851",
"S c #FBC5C7",
"D c #F5868A",
"F c #FFA1A9",
"G c #57B67F",
"H c #01A652",
"J c #00A651",
"K c #FFA8B0",
"L c #57B57E",
"P c #FABFC1",
"I c #F69397",
"U c #57B47E",
"Y c #FDE0E1",
"T c #F79397",
"R c #FFBCC4",
"E c #58BD87",
"W c white",
/* pixels */
" .XoO++++++++++++++++++++++++++",
"@#$%O++++++++++++++++++++++++++",
"&*=-O++++++++++++++++++++++++++",
";:>,O++++++++++++++++++++++++++",
"<123O++++++++++++++++++++++++++",
"4567O++++++++++++++++++++++++++",
"890qO++++++++++++++++++++++++++",
"we.,O++++++++++++++++++++++++++",
"rty%O++++++++++++++++++++++++++",
"uipaO++++++++++++++++++++++++++",
"sdfgO++++++++++++++++++++++++++",
"hjklzxxxxxxxxxxxxxxxxxxxxxxxxxx",
"cvbnmMMMMMMMMMMMMMMMMMMMMMMMMMM",
"NBVCZAAAAAAAAAAAAAAAAAAAAAAAAAA",
"SDFGHJJJJJJJJJJJJJJJJJJJJJJJJJJ",
"cBKLHJJJJJJJJJJJJJJJJJJJJJJJJJJ",
"PIKUHJJJJJJJJJJJJJJJJJJJJJJJJJJ",
"YTREHJJJJJJJJJJJJJJJJJJJJJJJJJJ"
};
