/* XPM */
static char *ca[] = {
/* columns rows colors chars-per-pixel */
"31 18 61 1 ",
"  c red",
". c #FF5858",
"X c #FFF2F2",
"o c white",
"O c #FF2B2B",
"+ c #FFEAEA",
"@ c #FFFDFD",
"# c #FF5A5A",
"$ c #FFC3C3",
"% c #FFB0B0",
"& c #FF8D8D",
"* c #FFD9D9",
"= c #FFFBFB",
"- c #FF5656",
"; c #FF1010",
": c #FF0404",
"> c #FF7F7F",
", c snow",
"< c #FFFCFC",
"1 c #FF7575",
"2 c #FF9999",
"3 c #FFF5F5",
"4 c #FF9F9F",
"5 c #FF9B9B",
"6 c #FF9494",
"7 c #FFBDBD",
"8 c #FF4F4F",
"9 c #FFB2B2",
"0 c #FFE9E9",
"q c #FF2E2E",
"w c #FF6262",
"e c #FF0808",
"r c #FF5454",
"t c #FF0202",
"y c #FF2929",
"u c #FFF4F4",
"i c #FF5959",
"p c #FF4343",
"a c #FFF7F7",
"s c #FF2D2D",
"d c #FF2C2C",
"f c #FFE8E8",
"g c #FFD3D3",
"h c #FF1D1D",
"j c #FF0D0D",
"k c #FFD0D0",
"l c #FFC9C9",
"z c #FF1E1E",
"x c #FFD7D7",
"c c #FF7D7D",
"v c #FF0C0C",
"b c #FF1313",
"n c #FF1111",
"m c #FF1414",
"M c #FFB4B4",
"N c #FF9696",
"B c #FF8484",
"V c #FFB7B7",
"C c #FF9191",
"Z c #FFC0C0",
"A c #FFAAAA",
/* pixels */
"       .XooooooooooooooO       ",
"       .Xoooooo+oooooooO       ",
"       .Xooooo@#+ooooooO       ",
"       .Xoooo$% &*=ooooO       ",
"       .Xoooo-; :>,ooooO       ",
"       .Xoo<o1   23ooooO       ",
"       .Xo4562   78$90oO       ",
"       .Xoq  w  ert yuoO       ",
"       .X<i         pooO       ",
"       .Xas         dfoO       ",
"       .Xogh       jkooO       ",
"       .Xoolz     jxoooO       ",
"       .Xooocvbnm 4ooooO       ",
"       .XoooMN%BVCZooooO       ",
"       .XooooooAoooooooO       ",
"       .Xooooo<NoooooooO       ",
"       .Xooooo<CoooooooO       ",
"       .XooooooooooooooO       "
};
