/* XPM */
static char *cd[] = {
/* columns rows colors chars-per-pixel */
"31 18 120 2 ",
"   c #0033FF",
".  c #0134FE",
"X  c #0B3AF4",
"o  c #0637F9",
"O  c #1A45E5",
"+  c #9B9B64",
"@  c #6A7A96",
"#  c #0839F7",
"$  c #1944E6",
"%  c #81897F",
"&  c #5F73A0",
"*  c #0234FD",
"=  c #002FFF",
"-  c #0031FF",
";  c #0F3DF0",
":  c #0737F8",
">  c #3557CA",
",  c #0030FF",
"<  c #284ED7",
"1  c #C2B53D",
"2  c #8D9272",
"3  c #0A3AF5",
"4  c #0032FF",
"5  c #DEC821",
"6  c #1541EA",
"7  c #1742E8",
"8  c #65779A",
"9  c #5069AF",
"0  c #002EFF",
"q  c #546BAB",
"w  c #FBDB04",
"e  c #8A8F75",
"r  c #002CFF",
"t  c #0D3BF2",
"y  c #B2AA4E",
"u  c #FFDF00",
"i  c #EFD211",
"p  c #0436FB",
"a  c #2149DE",
"s  c #B3AB4C",
"d  c #80887F",
"f  c #0133FE",
"g  c #1B45E4",
"h  c #4C66B3",
"j  c #4F69B0",
"k  c #4A65B5",
"l  c #697996",
"z  c #E5CD1A",
"x  c #FFDE00",
"c  c #878E78",
"v  c #4662BA",
"b  c #4B65B4",
"n  c #4D66B3",
"m  c #5169AE",
"M  c #2B50D4",
"N  c #113FEE",
"B  c #576DA8",
"V  c #405EBF",
"C  c #244BDB",
"Z  c #7F8880",
"A  c #E8CF17",
"S  c #FFEB00",
"D  c #FFE400",
"F  c #FFE300",
"G  c #FFE200",
"H  c #FFE900",
"J  c #FBDB05",
"K  c #989968",
"L  c #395AC6",
"P  c #0335FC",
"I  c #1F48E0",
"U  c #0939F5",
"Y  c #264CD9",
"T  c #888E78",
"R  c #FCDC03",
"E  c #ABA654",
"W  c #3759C8",
"Q  c #0838F7",
"!  c #2F52D1",
"~  c #DAC526",
"^  c #A19F5E",
"/  c #5B71A4",
"(  c #FFE700",
")  c #9E9C61",
"_  c #3E5DC1",
"`  c #3858C7",
"'  c #FDDD02",
"]  c #F6D809",
"[  c #FFE100",
"{  c #D7C329",
"}  c #234ADC",
"|  c #3A5AC5",
" . c #0235FD",
".. c #ECD114",
"X. c #9D9C62",
"o. c #818A7E",
"O. c #E2CB1D",
"+. c #FFE600",
"@. c #5A70A5",
"#. c #274DD9",
"$. c #BAB045",
"%. c #8B9074",
"&. c #969769",
"*. c #AEA752",
"=. c #254CDA",
"-. c #989967",
";. c #AEA851",
":. c #0738F8",
">. c #1D46E2",
",. c #415FBE",
"<. c #0234FE",
"1. c #3C5CC3",
"2. c #0F3DF1",
"3. c #596EA7",
"4. c #3A5AC6",
"5. c #234BDC",
"6. c #D4C12B",
"7. c #92956D",
"8. c #0A39F5",
"9. c white",
/* pixels */
"  . X o                                                       ",
"  O + @ #                                                     ",
"  $ % & *                           =                         ",
"  - ; :                           = > ,                       ",
"  < 1 2 3                       4 - 5 6 -                     ",
"  7 8 9 *                       0 q w e r                     ",
"  * 6 t .             4 - - - - = y u i p , - - - 4           ",
"  a s d #           f g h j h k l z x w c v b n m M *         ",
"  N B V .           . C Z A S D F u x x G G H J K L P         ",
"  = I U 4             - . Y T R u x x x x u E W Q ,           ",
"  ! ~ ^ X                 4 o / ( x x x G ) t                 ",
"  N _ ` .                   P s F ' ] R [ { }                 ",
"  o | C  .                4 } ( ..X.C o.O.+.@..               ",
"  #.$.%.Q                 0 &.*._ 0 , r =.-.;.:.              ",
"  :.< >.                  4 ,.3 0       , <.1.:.              ",
"f 2.3.4.:.                f - 4             - f               ",
"  5.6.7.P                                                     ",
"  8.X 7 .                                                     "
};
