/* XPM */
static char *cm[] = {
/* columns rows colors chars-per-pixel */
"31 18 60 1 ",
"  c #009811",
". c #843105",
"X c #C80000",
"o c #C20000",
"O c #D03800",
"+ c #FFF401",
"@ c #FFF101",
"# c #FFF001",
"$ c #C10000",
"% c #C20200",
"& c #D44900",
"* c #C60F00",
"= c #843005",
"- c #C70000",
"; c #C30500",
": c #F3C201",
"> c #D75401",
", c #C00000",
"< c #853405",
"1 c #D22300",
"2 c #D23D00",
"3 c #D85600",
"4 c #FFFF01",
"5 c #ECA601",
"6 c #D23F00",
"7 c #D13A00",
"8 c #D34400",
"9 c #FFF301",
"0 c #853505",
"q c #D73700",
"w c #E89601",
"e c #FBE201",
"r c #FEEA01",
"t c #FEED01",
"y c #F1B901",
"u c #D95A00",
"i c #FFF201",
"p c #C61000",
"a c #DA5E00",
"s c #FFFA01",
"d c #E89700",
"f c #CB2400",
"g c #D03700",
"h c #BF0000",
"j c #E27C01",
"k c #FFF601",
"l c #FCE101",
"z c #FCE301",
"x c #F2BE01",
"c c #C40900",
"v c #C30300",
"b c #F6C901",
"n c #DF7201",
"m c #C81900",
"M c #F1B701",
"N c #CF3300",
"B c #C91B00",
"V c #C50C00",
"C c #CA2000",
"Z c white",
/* pixels */
"          .XooooooooO+@########",
"          .XooooooooO+@########",
"          .XooooooooO+@########",
"          .XooooooooO+@########",
"          .Xooo$ooooO+@########",
"          .Xoo%&*oooO+@########",
"          =-$$;:>,$$O+@########",
"          <12O345O6789@########",
"          0qwer@ttyu&i@########",
"          =-pa9isdf$g+@########",
"          .XhjklzxcoO+@########",
"          .Xvbn$mMN$O+@########",
"          .-BV,o$,C$O+@########",
"          .X$$oooo$oO+@########",
"          .XooooooooO+@########",
"          .XooooooooO+@########",
"          .XooooooooO+@########",
"          .XooooooooO+@########"
};
