/* XPM */
static char *cn[] = {
/* columns rows colors chars-per-pixel */
"31 18 76 1 ",
"  c #FF3300",
". c #FF3400",
"X c #FF3900",
"o c #FF4100",
"O c #FF3200",
"+ c #FF3F00",
"@ c #FF3A00",
"# c #FF3100",
"$ c #FF4400",
"% c #FFB500",
"& c #FFB800",
"* c #FF3600",
"= c #FF2D00",
"- c #FF8100",
"; c #FF8500",
": c #FF3B00",
"> c #FF8F00",
", c #FF9E00",
"< c #FF4300",
"1 c #FF3000",
"2 c #FF2F00",
"3 c #FFF100",
"4 c #FF3500",
"5 c #FF4900",
"6 c #FF5700",
"7 c #FF5300",
"8 c #FF7400",
"9 c #FFE900",
"0 c yellow",
"q c #FF9100",
"w c #FF5400",
"e c #FF5C00",
"r c #FF5800",
"t c #FF4000",
"y c #FFAC00",
"u c #FFFD00",
"i c #FFC900",
"p c #FF4D00",
"a c #FF3C00",
"s c #FF2800",
"d c #FFCE00",
"f c #FFEE00",
"g c #FF7A00",
"h c #FF9F00",
"j c #FFE000",
"k c #FF4700",
"l c #FF2E00",
"z c #FFC300",
"x c #FF2500",
"c c #FF3D00",
"v c #FF7600",
"b c #FFA800",
"n c #FF5E00",
"m c #FFCC00",
"M c #FFF600",
"N c #FF9C00",
"B c #FF8B00",
"V c #FFD300",
"C c #FFFB00",
"Z c #FF6000",
"A c #FF3800",
"S c #FF5900",
"D c #FF4B00",
"F c #FF8E00",
"G c #FF3700",
"H c #FFC100",
"J c #FFD500",
"K c #FF5500",
"L c #FF6E00",
"P c #FF2B00",
"I c #FF4E00",
"U c #FF8D00",
"Y c #FF4C00",
"T c #FFCD00",
"R c #FF8A00",
"E c white",
/* pixels */
"                  .XoO         ",
"      O+@        #$%&*         ",
"      =-;        O:>,<O        ",
"  #122.&342221     =@#         ",
"  5677890qw6erO         O      ",
" Otyu0000000ip        @.aO     ",
"  Os6d0000fg2#       =hjk#     ",
"    le0000zxO       Ocvbn1     ",
"    =mMNBVCZ2        O=A2      ",
"   17%S*2D;FO        #OO       ",
"    GXO  O4X        #DaO       ",
"                    kHJKO      ",
"                    ALF4       ",
"                O    lP        ",
"               1OOO            ",
"               I%Ut            ",
"               YTR*            ",
"               #lX.            "
};
