/* XPM */
static char *cu[] = {
/* columns rows colors chars-per-pixel */
"31 18 109 2 ",
"   c #871B4E",
".  c #0E2989",
"X  c #002A8F",
"o  c #D41329",
"O  c #B81736",
"+  c #42236F",
"@  c #062A8C",
"#  c #002A90",
"$  c #CF142B",
"%  c #D31329",
"&  c #CD142C",
"*  c #7B1D54",
"=  c #21267F",
"-  c #002993",
";  c #00228B",
":  c #00218A",
">  c #D0142A",
",  c #D51328",
"<  c #AB173C",
"1  c #703772",
"2  c #7A95C9",
"3  c #7B94C8",
"4  c #7A90C5",
"5  c #D1142A",
"6  c #CD1931",
"7  c #D8596B",
"8  c #F5E5E9",
"9  c #FAFFFF",
"0  c #F9FAFC",
"q  c #CF1229",
"w  c #D42A3F",
"e  c #F2C0C6",
"r  c white",
"t  c #CF132A",
"y  c #CE1028",
"u  c #D6384C",
"i  c #CE1128",
"p  c #CD0821",
"a  c #E37885",
"s  c #FAEDEF",
"d  c #F1F4F9",
"f  c #F0F3F9",
"g  c #F1F3F9",
"h  c #D22339",
"j  c #D3273C",
"k  c #F3C6CB",
"l  c #D22338",
"z  c #D2253A",
"x  c #CD0B23",
"c  c #CE3047",
"v  c #926895",
"b  c #536BB0",
"n  c #4D6CB2",
"m  c #4E6CB2",
"M  c #D73B4E",
"N  c #EEADB5",
"B  c #EDA5AE",
"V  c #D6374B",
"C  c #CF1027",
"Z  c #C10E2A",
"A  c #7B164D",
"S  c #092284",
"D  c #00248C",
"F  c #CF132B",
"G  c #CE1027",
"H  c #EEAAB3",
"J  c #EB9BA5",
"K  c #CE0F27",
"L  c #D01229",
"P  c #CD1028",
"I  c #6C1A56",
"U  c #052588",
"Y  c #00268D",
"T  c #E88E9A",
"R  c #D6384B",
"E  c #EA9AA4",
"W  c #CD0921",
"Q  c #CE1129",
"!  c #C81F39",
"~  c #70528B",
"^  c #3455A5",
"/  c #3355A6",
"(  c #D0172D",
")  c #CF152C",
"_  c #DE5E6E",
"`  c #FEF7F8",
"'  c #D53347",
"]  c #EEABB3",
"[  c #DC2234",
"{  c #EE7982",
"}  c #FFE9E8",
"|  c #DB1325",
" . c #AE183B",
".. c #533075",
"X. c #5A6FB0",
"o. c #5D7CBC",
"O. c #5C77B7",
"+. c #5C76B7",
"@. c #771D55",
"#. c #162884",
"$. c #00288E",
"%. c #00278D",
"&. c #D0142B",
"*. c #BF1633",
"=. c #412470",
"-. c #012A8F",
";. c #9C1A44",
":. c #132886",
">. c #002B92",
/* pixels */
"  . X X X X X X X X X X X X X X X X X X X X X X X X X X X X X ",
"o O + @ # X X X X X X X X X X X X X X X X X X X X X X X X X X ",
"$ % & * = - ; : : : : : : : : : : : : : : : : : : : : : : : : ",
"$ $ > , < 1 2 3 4 4 4 4 4 4 4 4 4 4 4 4 4 4 4 4 4 4 4 4 4 4 4 ",
"$ $ $ $ 5 6 7 8 9 0 0 0 0 0 0 0 0 0 0 0 0 0 0 0 0 0 0 0 0 0 0 ",
"$ $ $ $ $ $ q w e r r r r r r r r r r r r r r r r r r r r r r ",
"$ $ t y u i $ q p a s d f g g g g g g g g g g g g g g g g g g ",
"$ $ h j k l z t $ x c v b n m m m m m m m m m m m m m m m m m ",
"$ q M N r B V i $ $ C Z A S D D D D D D D D D D D D D D D D D ",
"$ F G H r J K $ $ $ L P I U Y Y Y Y Y Y Y Y Y Y Y Y Y Y Y Y Y ",
"$ $ q T R E W $ $ Q ! ~ ^ / / / / / / / / / / / / / / / / / / ",
"$ $ ( Q t t ) F ) _ ` r r r r r r r r r r r r r r r r r r r r ",
"$ $ $ $ $ t t ' ] r r r r r r r r r r r r r r r r r r r r r r ",
"$ $ $ $ % [ { } r r r r r r r r r r r r r r r r r r r r r r r ",
"$ $ $ |  ...X.o.O.+.+.+.+.+.+.+.+.+.+.+.+.+.+.+.+.+.+.+.+.+.+.",
"$ 5 , @.#.X $.%.%.%.%.%.%.%.%.%.%.%.%.%.%.%.%.%.%.%.%.%.%.%.%.",
"&.*.=.-.X X X X X X X X X X X X X X X X X X X X X X X X X X X ",
";.:.>.X X X X X X X X X X X X X X X X X X X X X X X X X X X X "
};
