/* XPM */
static char *cz[] = {
/* columns rows colors chars-per-pixel */
"31 18 83 1 ",
"  c #597DA5",
". c #E2E8EF",
"X c #FEFEFE",
"o c white",
"O c #0B417B",
"+ c #174A81",
"@ c #8DA6C2",
"# c #E1E8EF",
"$ c #11457E",
"% c #0F437D",
"& c #063C78",
"* c #3E6896",
"= c #9FB4CB",
"- c #EFF2F6",
"; c #0C417B",
": c #12467F",
"> c #4E759F",
", c #B2C3D5",
"< c #0F447D",
"1 c #1B4D83",
"2 c #5C7FA6",
"3 c #E5EBF2",
"4 c #10447E",
"5 c #14477F",
"6 c #8DA6C1",
"7 c #0A3F7A",
"8 c #305D8F",
"9 c #BBCADB",
"0 c #F7F9FB",
"q c #0D427C",
"w c #6586AC",
"e c #C7D3E1",
"r c #063D78",
"t c #24558A",
"y c #6F97BA",
"u c #DED2DA",
"i c #FBDBDB",
"p c #F9DADA",
"a c #0B4781",
"s c #702B4B",
"d c #D43038",
"f c #DE363A",
"g c #DD353A",
"h c #10457E",
"j c #0B4681",
"k c #4A3762",
"l c #BB1B28",
"z c #D4151C",
"x c #D71319",
"c c #13457D",
"v c #264174",
"b c #94253C",
"n c #D91319",
"m c #D8141A",
"M c #D7141A",
"N c #10457F",
"B c #0F457F",
"V c #254074",
"C c #683053",
"Z c #D1161D",
"A c #DE1216",
"S c #0C4681",
"D c #1B4379",
"F c #5B3358",
"G c #B11E2D",
"H c #E11215",
"J c #D91419",
"K c #0E4680",
"L c #064883",
"P c #4B3761",
"I c #A12235",
"U c #D3151C",
"Y c #DB1318",
"T c #084783",
"R c #283F72",
"E c #9A243A",
"W c #CB1720",
"Q c #15447C",
"! c #6B2F51",
"~ c #CC171F",
"^ c #3A3B69",
"/ c #B31D2C",
"( c #E01215",
/* pixels */
" .Xoooooooooooooooooooooooooooo",
"O+@#ooooooooooooooooooooooooooo",
"$%&*=-ooooooooooooooooooooooooo",
"$$$;:>,oooooooooooooooooooooooo",
"$$$$$<123oooooooooooooooooooooo",
"$$$$$$$456ooooooooooooooooooooo",
"$$$$$$$$$7890oooooooooooooooooo",
"$$$$$$$$$$qqweooooooooooooooooo",
"$$$$$$$$$$$4rtyuipppppppppppppp",
"$$$$$$$$$$$$a<sdfgggggggggggggg",
"$$$$$$$$$$hjklzxxxxxxxxxxxxxxxx",
"$$$$$$$$$cvbnmMMMMMMMMMMMMMMMMM",
"$$$$$$NBVCZAMMMMMMMMMMMMMMMMMMM",
"$$$$$SDFGHJMMMMMMMMMMMMMMMMMMMM",
"$$$KLPIUYMMMMMMMMMMMMMMMMMMMMMM",
"$$TREWJmMMMMMMMMMMMMMMMMMMMMMMM",
"$Q!~MMMMMMMMMMMMMMMMMMMMMMMMMMM",
"^/(mMMMMMMMMMMMMMMMMMMMMMMMMMMM"
};
