/* XPM */
static char *dev[] = {
/* columns rows colors chars-per-pixel */
"31 18 50 1 ",
"  c #FF9933",
". c #FF9932",
"X c #FFFEFB",
"o c #E8E6ED",
"O c #A4A2C5",
"+ c #8D8AB7",
"@ c #A6A3C6",
"# c #E4E3EB",
"$ c #FFFDFB",
"% c white",
"& c #D4D4E6",
"* c #8586B7",
"= c #BEBFDA",
"- c #BABBD7",
"; c #B3B4D2",
": c #8686B7",
"> c #E4E5F0",
", c #9595BF",
"< c #CBCBE0",
"1 c #7777AD",
"2 c #363686",
"3 c #7C7CB0",
"4 c #BCBCD6",
"5 c #9B9BC3",
"6 c #C5C5DC",
"7 c #3C3C8B",
"8 c #7A7AAF",
"9 c #BBBBD6",
"0 c #9898C1",
"q c #D1D1E3",
"w c #8484B5",
"e c #D9D9E8",
"r c #B6B6D4",
"t c #CACADF",
"y c #7C7CB1",
"u c #EAEAF2",
"i c #F6FAF6",
"p c #FBFFF8",
"a c #D7DBE2",
"s c #7C80AD",
"d c #8085AF",
"f c #D9DEE5",
"g c #F7FBF6",
"h c #25911B",
"j c #24911A",
"k c #27931C",
"l c #2E9A20",
"z c #2D9920",
"x c #108705",
"c c #138808",
/* pixels */
"                               ",
"                               ",
"                               ",
"                               ",
"                               ",
"..............   ..............",
"XXXXXXXXXXXXXoO+@#$XXXXXXXXXXXX",
"%%%%%%%%%%%%&*=-;:>%%%%%%%%%%%%",
"%%%%%%%%%%%%,<12345%%%%%%%%%%%%",
"%%%%%%%%%%%%,617890%%%%%%%%%%%%",
"%%%%%%%%%%%%qwertyu%%%%%%%%%%%%",
"iiiiiiiiiiiipasddfgiiiiiiiiiiii",
"hhhhhhhhhhhhjklzzkhhhhhhhhhhhhh",
"xxxxxxxxxxxxxxxxxxxxxxxxxxxxxxx",
"ccccccccccccccccccccccccccccccc",
"ccccccccccccccccccccccccccccccc",
"ccccccccccccccccccccccccccccccc",
"ccccccccccccccccccccccccccccccc"
};
