/* XPM */
static char *dj[] = {
/* columns rows colors chars-per-pixel */
"31 18 89 1 ",
"  c #D8EBF9",
". c #88C1EC",
"X c #6CB3E7",
"o c #6AB2E7",
"O c white",
"+ c #CDE6F7",
"@ c #8DC4ED",
"# c #72B6E8",
"$ c #67B0E6",
"% c #69B2E7",
"& c #FDFEFF",
"* c #CAE4F6",
"= c #98C9EE",
"- c #6FB5E8",
"; c #64AFE6",
": c #F7FBFE",
"> c #D3E8F8",
", c #9ACBEF",
"< c #66B0E6",
"1 c #F8FCFE",
"2 c #DEEDF9",
"3 c #92C6EE",
"4 c #61AEE5",
"5 c #68B1E7",
"6 c #DDEEF9",
"7 c #88C2EC",
"8 c #FFFEFE",
"9 c #CEE5F7",
"0 c #85C0EC",
"q c #70B5E8",
"w c #FFF0F0",
"e c #FFD2D2",
"r c #C6E2F6",
"t c #8EC5ED",
"y c #68B1E8",
"u c #6BB2EA",
"i c #FFC6C6",
"p c #FF5555",
"a c #FF4141",
"s c #F9FCFF",
"d c #D5E8FF",
"f c #8CC6E4",
"g c #5DB2CA",
"h c #5CB1C9",
"j c #FFE8E8",
"k c #FF1616",
"l c #FF4E4E",
"z c #FFCECE",
"x c #A8E1AF",
"c c #3CBA58",
"v c #1FAE46",
"b c #1EAE45",
"n c #FFF5F5",
"m c #FFECEC",
"M c #FFF4F4",
"N c #B7E6BF",
"B c #3ABB4F",
"V c #16AE2E",
"C c #12AD2B",
"Z c #12AD2A",
"A c #FCFEFC",
"S c #C6EBCB",
"D c #40BC54",
"F c #0CAB26",
"G c #11AD2A",
"H c #EFFAF1",
"J c #C4EBCA",
"K c #56C568",
"L c #0BAA24",
"P c #0EAC27",
"I c #F2FBF4",
"U c #B3E4BB",
"Y c #5FC870",
"T c #10AC29",
"R c #0AAA23",
"E c #11AD2B",
"W c #AAE2B3",
"Q c #54C466",
"! c #1AB032",
"~ c #0CAB25",
"^ c #41BD55",
"/ c #1CB134",
"( c #C8ECCD",
") c #3FBD53",
"_ c #14AE2D",
"` c #D7F1DB",
"' c #56C467",
"] c #0AAA24",
"[ c #0FAC28",
/* pixels */
" .Xoooooooooooooooooooooooooooo",
"OO+@#$%oooooooooooooooooooooooo",
"OOO&*=-;%oooooooooooooooooooooo",
"OOOOO:>,$<ooooooooooooooooooooo",
"OOOOOOO12345ooooooooooooooooooo",
"OOOOOOOOOO675oooooooooooooooooo",
"OOOOOO8OOOOO90q5ooooooooooooooo",
"OOOOOweOOOOOOOrtqyuuuuuuuuuuuuu",
"OOOOipae8OOOOOOsdfghhhhhhhhhhhh",
"OOOOjklzOOOOOOOOxcvbbbbbbbbbbbb",
"OOOOnmwMOOOOOONBVCZZZZZZZZZZZZZ",
"OOOOOOOOOOOASDFGCCCCCCCCCCCCCCC",
"OOOOOOOOOHJKLPCCCCCCCCCCCCCCCCC",
"OOOOOOOIUYTRECCCCCCCCCCCCCCCCCC",
"OOOOOOWQ!~GCCCCCCCCCCCCCCCCCCCC",
"OOOOU^/TGCCCCCCCCCCCCCCCCCCCCCC",
"OO()_CCCCCCCCCCCCCCCCCCCCCCCCCC",
"`'][CCCCCCCCCCCCCCCCCCCCCCCCCCC"
};
