/* XPM */
static char *dk[] = {
/* columns rows colors chars-per-pixel */
"31 18 18 1 ",
"  c #D00C33",
". c #D00B32",
"X c #FCEBEE",
"o c white",
"O c #DF5C76",
"+ c #CF0931",
"@ c #CF0830",
"# c #DF5B75",
"$ c #DD516C",
"% c #DD506C",
"& c #FDF1F3",
"* c #E88A9D",
"= c #FFFEFE",
"- c #DA3E5E",
"; c #DA3E5D",
": c #FCEFF2",
"> c #E67E93",
", c #D00A31",
/* pixels */
"         .XooO.                ",
"         .XooO.                ",
"         .XooO.                ",
"         .XooO.                ",
"         .XooO.                ",
"         .XooO.                ",
"+++++++++@Xoo#@++++++++++++++++",
"$$$$$$$$$%&oo*%$$$$$$$$$$$$$$$$",
"ooooooooooooooooooooooooooooooo",
"oooooooooooo=oooooooooooooooooo",
"---------;:oo>;----------------",
".........,XooO,................",
"         .XooO.                ",
"         .XooO.                ",
"         .XooO.                ",
"         .XooO.                ",
"         .XooO.                ",
"         .XooO.                "
};
