/* XPM */
static char *dz[] = {
/* columns rows colors chars-per-pixel */
"31 18 83 1 ",
"  c #008638",
". c #018739",
"X c #6BB98C",
"o c white",
"O c #008939",
"+ c #008C3B",
"@ c #65C393",
"# c #008738",
"$ c #2D6D2E",
"% c #71461E",
"& c #B94C39",
"* c #FC8082",
"= c #FBCDCD",
"- c #117C34",
"; c #9E2D13",
": c #EB0100",
"> c #E50503",
", c #C35141",
"< c #FC9D9E",
"1 c #F78585",
"2 c #F78787",
"3 c #FEF9F9",
"4 c #0D7F35",
"5 c #9F2C12",
"6 c #FB0000",
"7 c #B3210E",
"8 c #0B8136",
"9 c #64C191",
"0 c #FCD8D8",
"q c #436128",
"w c #FD0000",
"e c #D30F06",
"r c #137C34",
"t c #008839",
"y c #6AAC7F",
"u c #FFDCE0",
"i c #F9ABAB",
"p c #FBC7C7",
"a c #853B19",
"s c red",
"d c #8A3818",
"f c #078236",
"g c #6AA77A",
"h c #FF787C",
"j c #ED0808",
"k c #F35050",
"l c #FAB9B9",
"z c #863B18",
"x c #699F72",
"c c #FF5457",
"v c #ED0000",
"b c #F57272",
"n c #FDE2E2",
"m c #416129",
"M c #D30E06",
"N c #6BB183",
"B c #FFFAFE",
"V c #FAB6B6",
"C c #FABABA",
"Z c #0E7E35",
"A c #A32A12",
"S c #F90000",
"D c #A82710",
"F c #0C8137",
"G c #6DB78B",
"H c snow",
"J c #FEE9E9",
"K c #177933",
"L c #E00703",
"P c #D50E07",
"I c #B6604C",
"U c #FFB1B3",
"Y c #FAB2B2",
"T c #F89F9F",
"R c #FEE8E8",
"E c #008739",
"W c #3E632A",
"Q c #72461E",
"! c #B64E3A",
"~ c #FB7B7D",
"^ c #F9B0B0",
"/ c #FFFEFE",
"( c #66C192",
/* pixels */
"              .Xooooooooooooooo",
"              .Xooooooooooooooo",
"              .Xooooooooooooooo",
"             O+@ooooooooooooooo",
"           #+$%&*=ooooooooooooo",
"          #-;:>,<123ooooooooooo",
"          456789ooo0ooooooooooo",
"          qwertyuipoooooooooooo",
"          asdf.ghjklooooooooooo",
"          zsdf.xcvbnooooooooooo",
"          msM-.NBVCoooooooooooo",
"          ZASDFGooHJooooooooooo",
"          tK;LPIUYTRooooooooooo",
"           tEWQ!~^/oooooooooooo",
"             O+(ooooooooooooooo",
"              .Xooooooooooooooo",
"              .Xooooooooooooooo",
"              .Xooooooooooooooo"
};
