/* XPM */
static char *eg[] = {
/* columns rows colors chars-per-pixel */
"31 18 41 1 ",
"  c black",
". c #111111",
"X c #111112",
"o c #111215",
"O c #CE1025",
"+ c #CE1126",
"@ c #FDDA47",
"# c #FDDB49",
"$ c #FDDD55",
"% c #FDDE58",
"& c #FDE062",
"* c #FEE166",
"= c #FDE371",
"- c #FEE474",
"; c #FDE57B",
": c #FEE784",
"> c #FEEC9D",
", c #FDEC9E",
"< c #FEEC9F",
"1 c #FEEEA7",
"2 c #FEF1B6",
"3 c #F4EAC0",
"4 c #F4EBC4",
"5 c #F4ECC5",
"6 c #FFF4C1",
"7 c #FFF5C6",
"8 c #FEF2CD",
"9 c #FFF7CE",
"0 c #FFF8D3",
"q c #FFF8D4",
"w c #F5F2E6",
"e c #F5F3E9",
"r c gray96",
"t c #F5F6F7",
"y c #FFFBF7",
"u c #FFFEF8",
"i c #FFFEF9",
"p c #FFFCFA",
"a c #FFFCFD",
"s c #FFFFFE",
"d c white",
/* pixels */
"+++++++++++++++++++++++++++++++",
"+++++++++++++++++++++++++++++++",
"+++++++++++++++++++++++++++++++",
"+++++++++++++++++++++++++++++++",
"+++++++++++++++++++++++++++++++",
"OOOOOOOOOOOOOOOOOOOOOOOOOOOOOOO",
"aaaaaaaaaaaaaay8paaaaaaaaaaaaaa",
"ddddddddddddd6097qsdddddddddddd",
"ddddddddddddd%$<@:idddddddddddd",
"ddddddddddddd#*,&-udddddddddddd",
"ddddddddddddd;2=1>udddddddddddd",
"rrrrrrrrrrrrtw534errrrrrrrrrrrr",
".............XoooX.............",
"                               ",
"                               ",
"                               ",
"                               ",
"                               "
};
