/* XPM */
static char *epo[] = {
/* columns rows colors chars-per-pixel */
"31 18 38 1 ",
"  c white",
". c #64C264",
"X c #009500",
"o c #009900",
"O c #FAFDFA",
"+ c #DDF1DD",
"@ c #B9E3B9",
"# c #5CBE5C",
"$ c #F4FBF4",
"% c #99D699",
"& c #79CA79",
"* c #32AD32",
"= c #109F10",
"- c #82CD82",
"; c #E8F6E8",
": c #FEFEFE",
"> c #E2F4E2",
", c #59BD59",
"< c #029A02",
"1 c #37B037",
"2 c #CAEACA",
"3 c #FCFEFC",
"4 c #80CC80",
"5 c #049B04",
"6 c #12A012",
"7 c #52BA52",
"8 c #FEFFFE",
"9 c #6AC36A",
"0 c #D9F0D9",
"q c #81CC81",
"w c #D7EFD7",
"e c #66C266",
"r c #D6EFD6",
"t c #54BB54",
"y c #009600",
"u c #24A724",
"i c #0E9F0E",
"p c #009800",
/* pixels */
"          .Xooooooooooooooooooo",
"    O+    .Xooooooooooooooooooo",
"    @#    .Xooooooooooooooooooo",
" $%&*=&-; .Xooooooooooooooooooo",
" :>,<o123 .Xooooooooooooooooooo",
"   4567   .Xooooooooooooooooooo",
"  890$qw  .Xooooooooooooooooooo",
"  3       eXooooooooooooooooooo",
"rrwrrrrwrrtyooooooooooooooooooo",
"uuuuuuuuuuipooooooooooooooooooo",
"ooooooooooooooooooooooooooooooo",
"ooooooooooooooooooooooooooooooo",
"ooooooooooooooooooooooooooooooo",
"ooooooooooooooooooooooooooooooo",
"ooooooooooooooooooooooooooooooo",
"ooooooooooooooooooooooooooooooo",
"ooooooooooooooooooooooooooooooo",
"ooooooooooooooooooooooooooooooo"
};
