/* XPM */
static char *es[] = {
/* columns rows colors chars-per-pixel */
"31 18 77 1 ",
"  c #C60B1E",
". c #C3021F",
"X c #E6750D",
"o c #E7750D",
"O c #FFC400",
"+ c #F6BF02",
"@ c #FFC502",
"# c #E3AB08",
"$ c #CC9311",
"% c #AF8319",
"& c #D39A0D",
"* c #F1B806",
"= c #FFC500",
"- c #F6BC00",
"; c #EEBA00",
": c #C46B0B",
"> c #974110",
", c #9A5118",
"< c #A45C24",
"1 c #DE9F0D",
"2 c #E6B000",
"3 c #E9B814",
"4 c #D4AD21",
"5 c #BF5F11",
"6 c #874F0F",
"7 c #B1655C",
"8 c #BE9C8A",
"9 c #DFB437",
"0 c #BD9D33",
"q c #FFC600",
"w c #FFC300",
"e c #E4A822",
"r c #C5833C",
"t c #9F3215",
"y c #784222",
"u c #825C6A",
"i c #BDA0BA",
"p c #C89155",
"a c #BA8559",
"s c #F8B800",
"d c #E19F20",
"f c #D08D37",
"g c #B26B0C",
"h c #A2580E",
"j c #704441",
"k c #B44C18",
"l c #D48716",
"z c #B87354",
"x c #F8BA00",
"c c #ECBE17",
"v c #D9B929",
"b c #B6730A",
"n c #AC6B0A",
"m c #AC541E",
"M c #B35410",
"N c #D7930E",
"B c #C4AF3F",
"V c #E3B714",
"C c #BCA532",
"Z c #F0B904",
"A c #DCAA1B",
"S c #C9AB3F",
"D c #E8A612",
"F c #E2B312",
"G c #AE9E3C",
"H c #FEC400",
"J c #E56F0E",
"K c #E7700C",
"L c #EB710A",
"P c #E7700E",
"I c #E8720C",
"U c #EA7209",
"Y c #E7720C",
"T c #E8710C",
"R c #EC7209",
"E c #C4031F",
"W c white",
/* pixels */
"                               ",
"                               ",
"                               ",
"...............................",
"XXXXXXXXXXoXXXXXXXXXXXXXXXXXXXX",
"OOOOOOOOOO+OOOOOOOOOOOOOOOOOOOO",
"OOOOOOO@#$%&*=OOOOOOOOOOOOOOOOO",
"OOOOOO-;:>,<12OOOOOOOOOOOOOOOOO",
"OOOOOO34567890qOOOOOOOOOOOOOOOO",
"OOOOOwertyuipas=OOOOOOOOOOOOOOO",
"OOOOOOdfghjklzx=OOOOOOOOOOOOOOO",
"OOOOOOcvbnmMNB=OOOOOOOOOOOOOOOO",
"qqqqqqVCZASDFGHqqqqqqqqqqqqqqqq",
"JJJJJJKLPIUYTRJJJJJJJJJJJJJJJJJ",
"EEEEEEEEEEEEEEEEEEEEEEEEEEEEEEE",
"                               ",
"                               ",
"                               "
};
