/* XPM */
static char *et[] = {
/* columns rows colors chars-per-pixel */
"31 18 111 2 ",
"   c #298C08",
".  c #298C07",
"X  c #2A8D04",
"o  c #2A8D02",
"O  c #2A8D03",
"+  c #298C06",
"@  c #268917",
"#  c #1B804B",
"$  c #157C65",
"%  c #177E5A",
"&  c #228629",
"*  c #AEB018",
"=  c #A1AC20",
"-  c #3F886A",
";  c #1172B8",
":  c #0069CF",
">  c #4F8798",
",  c #066DC8",
"<  c #066CCA",
"1  c #177793",
"2  c #8BA42F",
"3  c #AFB117",
"4  c #ADB018",
"5  c #FFC822",
"6  c #FFC821",
"7  c #859A75",
"8  c #006ACB",
"9  c #4D8695",
"0  c #2B7AAA",
"q  c #93A067",
"w  c #6C9180",
"e  c #42839B",
"r  c #1B74B8",
"t  c #2C7AAF",
"y  c #F5C22E",
"u  c #FFC921",
"i  c #FFC621",
"p  c #FFC620",
"a  c #F3C229",
"s  c #026CC5",
"d  c #367EA4",
"f  c #6A9181",
"g  c #96A165",
"h  c #568A8F",
"j  c #939F67",
"k  c #77957A",
"l  c #598A8D",
"z  c #056DC3",
"x  c #849B70",
"c  c #FFC91B",
"v  c #FFC720",
"b  c #E8BE30",
"n  c #0066CE",
"m  c #4B8696",
"M  c #628E87",
"N  c #BCAE4D",
"B  c #337EA5",
"V  c #7E9875",
"C  c #97A164",
"Z  c #4A8596",
"A  c #006BC6",
"S  c #FFCA19",
"D  c #FEC621",
"F  c #2177B0",
"G  c #0B6FBF",
"H  c #4D8794",
"J  c #8B9C6C",
"K  c #849A71",
"L  c #A0A45E",
"P  c #668F84",
"I  c #1B75B5",
"U  c #1873B7",
"Y  c #B0A954",
"T  c #FFC81D",
"R  c #FEC021",
"E  c #FFC021",
"W  c #BEA94A",
"Q  c #0167C4",
"!  c #56898F",
"~  c #1D76B4",
"^  c #668F85",
"/  c #056EC3",
"(  c #598B8D",
")  c #1470B8",
"_  c #5A858C",
"`  c #FFC31B",
"'  c #F13419",
"]  c #F43517",
"[  c #BD3B3D",
"{  c #3D5399",
"}  c #1B5EB2",
"|  c #53778E",
" . c #1860B4",
".. c #275AA9",
"X. c #854065",
"o. c #F53816",
"O. c #EF1F18",
"+. c #F51E13",
"@. c #F71F12",
"#. c #D32A2D",
"$. c #B82F40",
"%. c #C72D36",
"&. c #EB231A",
"*. c #F91E11",
"=. c #EF1F17",
"-. c #EF2118",
";. c #F22016",
":. c #F42015",
">. c #F32015",
",. c #F02117",
"<. c white",
/* pixels */
"                                                              ",
"                                                              ",
"                                                              ",
"                                                              ",
"                        . X o O +                             ",
"                      + @ # $ % &                             ",
"* * * * * * * * * * = - ; : > , < 1 2 3 4 * * * * * * * * * * ",
"5 5 5 5 5 5 5 5 5 6 7 8 9 0 q w e r t y u 5 5 5 5 5 5 5 5 5 5 ",
"i i i i i i i i p a s d f g h j k l z x c i i i i i i i i i i ",
"i i i i i i i i v b n m M N B V C Z A M S i i i i i i i i i i ",
"i i i i i i i i i D F G H J K L P I U Y T i i i i i i i i i i ",
"R R R R R R R R R E W Q ! ~ ^ / ( ) _ ` R R R R R R R R R R R ",
"' ' ' ' ' ' ' ' ' ' ] [ { } |  ...X.o.' ' ' ' ' ' ' ' ' ' ' ' ",
"O.O.O.O.O.O.O.O.O.O.O.+.@.#.$.%.&.*.=.O.O.O.O.O.O.O.O.O.O.O.O.",
"-.-.-.-.-.-.-.-.-.-.-.-.-.;.:.>.,.-.-.-.-.-.-.-.-.-.-.-.-.-.-.",
"-.-.-.-.-.-.-.-.-.-.-.-.-.-.-.-.-.-.-.-.-.-.-.-.-.-.-.-.-.-.-.",
"-.-.-.-.-.-.-.-.-.-.-.-.-.-.-.-.-.-.-.-.-.-.-.-.-.-.-.-.-.-.-.",
"-.-.-.-.-.-.-.-.-.-.-.-.-.-.-.-.-.-.-.-.-.-.-.-.-.-.-.-.-.-.-."
};
