/* XPM */
static char *eu[] = {
/* columns rows colors chars-per-pixel */
"27 18 231 2 ",
"   c #81D01E",
".  c #78E11E",
"X  c #7DD61E",
"o  c #8FB51C",
"O  c #AF7A1A",
"+  c #CD4518",
"@  c #DC2D18",
"#  c #DE2918",
"$  c #E03525",
"%  c #F4B5AF",
"&  c white",
"*  c #E65B4E",
"=  c #DE2715",
"-  c #DA3018",
";  c #C94C18",
":  c #AD801A",
">  c #8FB61D",
",  c #7CD61E",
"<  c #77E11E",
"1  c #86C61E",
"2  c #78E01E",
"3  c #76E21E",
"4  c #83CC1D",
"5  c #A1961B",
"6  c #C15B19",
"7  c #D63518",
"8  c #DD2A18",
"9  c #DC2C18",
"0  c #D23E18",
"q  c #B9691A",
"w  c #99A31C",
"e  c #80D01E",
"r  c #77E01E",
"t  c #77E21E",
"y  c #AA861A",
"u  c #88C21E",
"i  c #7ADC1E",
"p  c #7CD71E",
"a  c #92B01C",
"s  c #B2751A",
"d  c #CE4418",
"f  c #DA2E18",
"g  c #E03425",
"h  c #F4B4AF",
"j  c #DE2615",
"k  c #D73418",
"l  c #C55319",
"z  c #A7891B",
"x  c #8ABE1D",
"c  c #76E31E",
"v  c #7ADB1E",
"b  c #87C41D",
"n  c #D14019",
"m  c #B66F1A",
"M  c #96AA1C",
"N  c #7FD31E",
"B  c #78DF1E",
"V  c #85C71D",
"C  c #A0971B",
"Z  c #BF5F19",
"A  c #D64525",
"S  c #E65A4E",
"D  c #DA2C15",
"F  c #CC4619",
"G  c #B4741A",
"H  c #95AA1D",
"J  c #7FD21E",
"K  c #81CE1E",
"L  c #97A61C",
"P  c #B5711A",
"I  c #DE2818",
"U  c #D83118",
"Y  c #C45519",
"T  c #A2921B",
"R  c #86C61D",
"E  c #78DE1E",
"W  c #AF8B27",
"Q  c #EAC6AF",
"!  c #FEFFFE",
"~  c #DD694E",
"^  c #BE5D16",
"/  c #9F981B",
"(  c #86C71D",
")  c #79DE1E",
"_  c #7BD91E",
"`  c #8DB81D",
"'  c #AA841B",
"]  c #C75019",
"[  c #D83318",
"{  c #DF2818",
"}  c #B2771A",
"|  c #92AF1C",
" . c #7DD51E",
".. c #76E11E",
"X. c #88D12A",
"o. c #D9E6B0",
"O. c #FFFFFE",
"+. c #BBA650",
"@. c #8EB41A",
"#. c #7DD71E",
"$. c #84CA1D",
"%. c #9D9C1C",
"&. c #BB641A",
"*. c #D33B18",
"=. c #DD2B18",
"-. c #DC1907",
";. c #DB1A07",
":. c #D32607",
">. c #BF4A08",
",. c #A0820B",
"<. c #83B70D",
"1. c #72D60E",
"2. c #6DDF0E",
"3. c #75E11B",
"4. c #CDF3AB",
"5. c #96DB46",
"6. c #6DDB0B",
"7. c #6EDD0E",
"8. c #77CD0E",
"9. c #8DA50B",
"0. c #AD6B0A",
"q. c #C93908",
"w. c #D72007",
"e. c #DB1907",
"r. c #FBE5E3",
"t. c #F9E8E3",
"y. c #F6EEE3",
"u. c #F2F5E4",
"i. c #EFFAE4",
"p. c #EFFBE4",
"a. c #EFFCE5",
"s. c #F9FEF6",
"d. c #F3FCEA",
"f. c #EEFBE4",
"g. c #F0F9E4",
"h. c #F3F3E4",
"j. c #F7EBE3",
"k. c #FAE7E3",
"l. c #FBE6E3",
"z. c #F9E9E3",
"x. c #F5F0E4",
"c. c #F1F7E4",
"v. c #F2FCEA",
"b. c #F1F8E4",
"n. c #F5F1E4",
"m. c #D91D07",
"M. c #CF2E08",
"N. c #B95709",
"B. c #99900B",
"V. c #7EC20D",
"C. c #70D90E",
"Z. c #75E01B",
"A. c #94DD46",
"S. c #6DDC0B",
"D. c #6FDB0E",
"F. c #7AC60E",
"G. c #96950C",
"H. c #B85709",
"J. c #D12B08",
"K. c #DA1B07",
"L. c #C55419",
"P. c #A8891B",
"I. c #8BBD1D",
"U. c #7ADA1E",
"Y. c #79DD1E",
"T. c #8BCB2A",
"R. c #DAE2B0",
"E. c #B7AD51",
"W. c #8ABA1B",
"Q. c #7BD81E",
"!. c #8CBA1D",
"~. c #AA831B",
"^. c #C84E19",
"/. c #D93118",
"(. c #DB2C18",
"). c #CF4218",
"_. c #B4711A",
"`. c #95A91C",
"'. c #7FD11E",
"]. c #94AC1C",
"[. c #B58027",
"{. c #EBC2AF",
"}. c #DA6E4E",
"|. c #BA6518",
" X c #9B9F1B",
".X c #82CC1E",
"XX c #81CE1D",
"oX c #9AA21C",
"OX c #BA681A",
"+X c #D33C18",
"@X c #C75018",
"#X c #A4901B",
"$X c #87C31D",
"%X c #79DC1E",
"&X c #7BDA1E",
"*X c #8BBC1D",
"=X c #D94025",
"-X c #DA2D15",
";X c #C94C19",
":X c #AD801B",
">X c #8DB91C",
",X c #A8881B",
"<X c #C65119",
"1X c #A3911B",
"2X c #80D11E",
"3X c #83CB1D",
"4X c #9C9C1B",
"5X c #BB661A",
"6X c #D23C18",
"7X c #DC2B18",
"8X c #D43A18",
"9X c #80D21E",
"0X c #77DF1E",
"qX c #96A71C",
"wX c #84CA1E",
"eX c #7CD81E",
"rX c #90B41C",
"tX c #AF7B1A",
"yX c #CB4A18",
"uX c #DA3118",
"iX c #C74F19",
"pX c #A9871B",
"aX c #77E21F",
"sX c #78E01F",
"dX c #89C11E",
"fX c #A48F1B",
"gX c #C25A19",
"hX c #D53618",
"jX c #BA661A",
"kX c #9AA11C",
"lX c #82CD1E",
/* pixels */
"  . X o O + @ # # # $ % & & & * = # # # # - ; : > , < ",
"1 2 3 2 4 5 6 7 8 # $ % & & & * = # # 9 0 q w e r t r ",
"y u i t 3 p a s d f g h & & & * j 8 k l z x i c t v b ",
"n m M N < c B V C Z A % & & & S D F G H J < c B K L P ",
"I U Y T R E c 3 X o W Q & ! & ~ ^ / ( ) c 3 _ ` ' ] [ ",
"# { 9 d } |  ...3 B X.o.& O.& +.@.#.< c B $.%.&.*.=.{ ",
"-.-.-.;.:.>.,.<.1.2.3.4.& & & 5.6.2.7.8.9.0.q.w.e.-.-.",
"r.r.r.r.r.t.y.u.i.p.a.s.& & & d.f.p.p.g.h.j.k.r.r.r.r.",
"& & & & & & & & & & & & & & & & & & & & & & & & & & & ",
"& & & & & & & & & & & & & & & & & & & & & & & & & & & ",
"r.r.r.r.l.z.x.c.i.p.a.s.& & & v.f.p.p.b.n.z.l.r.r.r.r.",
"-.-.-.m.M.N.B.V.C.2.Z.4.& & & A.S.2.D.F.G.H.J.K.-.-.-.",
"I # k L.P.I.U.3 3 Y.T.R.& & & E.W.Q.t 3 v !.~.^./.I # ",
"(.)._.`.'.< c < J ].[.{.& & & }.|. X.X2 c r XXoXOX+X=.",
"@X#X$X%X3 3 &X*XP.L.=X% & & & S -X;X:X>Xi c 3 &X*X,X<X",
"1X2X< c r 3X4X5X6X7Xg % & & & * j =.8X5Xw 9Xt 3 0Xe qX",
"wXr < eXrXtXyX- # # $ % & & & * = # # uXiXpXx i 3 < v ",
"aXsXdXfXgXhX8 # # # $ % & & & * = # # # =.6XjXkXlX) < "
};
