/* XPM */
static char *fi[] = {
/* columns rows colors chars-per-pixel */
"31 18 23 1 ",
"  c white",
". c #8BA4C5",
"X c #003580",
"o c #00307D",
"O c #4169A1",
"+ c #9EB2CF",
"@ c #A5B7D2",
"# c #567AAB",
"$ c #00327E",
"% c #285594",
"& c #A0B4D0",
"* c #002A79",
"= c #002F7C",
"- c #00317D",
"; c #00337F",
": c #00347F",
"> c #849EC2",
", c #8AA2C5",
"< c #486EA4",
"1 c #224F90",
"2 c #869FC3",
"3 c #90A8C8",
"4 c #436BA2",
/* pixels */
"        .XXXoO                 ",
"        .XXXoO                 ",
"        .XXXoO                 ",
"        .XXXoO                 ",
"        .XXXoO                 ",
"        .XXXoO                 ",
"+++++++@#XXX$%&++++++++++++++++",
"********=XXXX$*****************",
"XXXXXXXXXXXXXXXXXXXXXXXXXXXXXXX",
"XXXXXXXXXXXXXXXXXXXXXXXXXXXXXXX",
"--------;XXXX:-----------------",
">>>>>>>,<XXX$12>>>>>>>>>>>>>>>>",
"        3XXXo4                 ",
"        .XXXoO                 ",
"        .XXXoO                 ",
"        .XXXoO                 ",
"        .XXXoO                 ",
"        .XXXoO                 "
};
