/* XPM */
static char *fo[] = {
/* columns rows colors chars-per-pixel */
"31 18 54 1 ",
"  c white",
". c #5FA8DC",
"X c #106EBD",
"o c #FD2724",
"O c #F72928",
"+ c #8F486B",
"@ c #0068BE",
"# c #F8FCFE",
"$ c #D6EAF8",
"% c #E2F0FB",
"& c #4EA0DA",
"* c #0E6FBE",
"= c #8E486B",
"- c #006ABF",
"; c #D0E7F6",
": c #D7EAF8",
"> c #2159A1",
", c #2059A1",
"< c #2B60A4",
"1 c #40609E",
"2 c #FA2826",
"3 c #F52929",
"4 c #A3425E",
"5 c #3A62A2",
"6 c #2159A2",
"7 c #D9323B",
"8 c #DA313A",
"9 c #F02B2C",
"0 c #F02B2D",
"q c #E62E33",
"w c #DA323B",
"e c #FA2926",
"r c #F92827",
"t c #EE2B2D",
"y c #EF2B2D",
"u c #F32A2B",
"i c #FA2927",
"p c #0869BB",
"a c #0769BA",
"s c #0B6CBC",
"d c #1E6AB3",
"f c #FC2724",
"g c #F62928",
"h c #954667",
"j c #176CB7",
"k c #0869BA",
"l c #C1DDF1",
"z c #CCE3F3",
"x c #479AD6",
"c c #006ABE",
"v c #BBDAF0",
"b c #C2DEF1",
"n c #61A9DC",
"m c #FDFEFF",
/* pixels */
"        .XoO+@#                ",
"        .XoO+@#                ",
"        .XoO+@#                ",
"        .XoO+@#                ",
"        .XoO+@#                ",
"        .XoO+@#                ",
"$$$$$$$%&*oO=-;:$$$$$$$$$$$$$$$",
">>>>>>>,<123456>>>>>>>>>>>>>>>>",
"777777777890qw77777777777777777",
"eeeeeeeeertyuieeeeeeeeeeeeeeeee",
"pppppppasdfghjpkppppppppppppppp",
"lllllllzxXoO+cvblllllllllllllll",
"        nXoO+@m                ",
"        .XoO+@#                ",
"        .XoO+@#                ",
"        .XoO+@#                ",
"        .XoO+@#                ",
"        .XoO+@#                "
};
