/* XPM */
static char *fr[] = {
/* columns rows colors chars-per-pixel */
"31 18 6 1 ",
"  c #00209F",
". c #9CA8D9",
"X c white",
"o c #FCC8CE",
"O c #F31E36",
"+ c #F42A41",
/* pixels */
"          .XXXXXXXXXoO+++++++++",
"          .XXXXXXXXXoO+++++++++",
"          .XXXXXXXXXoO+++++++++",
"          .XXXXXXXXXoO+++++++++",
"          .XXXXXXXXXoO+++++++++",
"          .XXXXXXXXXoO+++++++++",
"          .XXXXXXXXXoO+++++++++",
"          .XXXXXXXXXoO+++++++++",
"          .XXXXXXXXXoO+++++++++",
"          .XXXXXXXXXoO+++++++++",
"          .XXXXXXXXXoO+++++++++",
"          .XXXXXXXXXoO+++++++++",
"          .XXXXXXXXXoO+++++++++",
"          .XXXXXXXXXoO+++++++++",
"          .XXXXXXXXXoO+++++++++",
"          .XXXXXXXXXoO+++++++++",
"          .XXXXXXXXXoO+++++++++",
"          .XXXXXXXXXoO+++++++++"
};
