/* XPM */
static char *gb[] = {
/* columns rows colors chars-per-pixel */
"31 18 126 2 ",
"   c #001574",
".  c #001A77",
"X  c #001D79",
"o  c #00237D",
"O  c #CE0D25",
"+  c #CE1027",
"@  c #CF1229",
"#  c #CF182E",
"$  c #D11B32",
"%  c #D52439",
"&  c #D52A3E",
"*  c #D42E42",
"=  c #D43247",
"-  c #D93447",
";  c #D73548",
":  c #DC3648",
">  c #D73A4E",
",  c #DC3B4D",
"<  c #D83E51",
"1  c #D94456",
"2  c #DB4B5C",
"3  c #E54A57",
"4  c #E24F5E",
"5  c #DC4F61",
"6  c #D05166",
"7  c #DE5161",
"8  c #DD5768",
"9  c #DE5C6C",
"0  c #E05D6D",
"q  c #D76476",
"w  c #DF6372",
"e  c #E26B7A",
"r  c #EA6C78",
"t  c #062A81",
"y  c #092C82",
"u  c #0F3185",
"i  c #123487",
"p  c #153788",
"a  c #133B8D",
"s  c #1B3D8C",
"d  c #20408D",
"f  c #244390",
"g  c #224895",
"h  c #2B4A94",
"j  c #324E96",
"k  c #2F519A",
"l  c #335199",
"z  c #3B569B",
"x  c #3D599C",
"c  c #3A5CA1",
"v  c #48609F",
"b  c #4962A2",
"n  c #556DA9",
"m  c #586FA9",
"M  c #5F7BB3",
"N  c #6C72A6",
"B  c #6076AE",
"V  c #667BB1",
"C  c #697EB3",
"Z  c #B77C97",
"A  c #8E7EA7",
"S  c #877EA9",
"D  c #C97086",
"F  c #C5748C",
"G  c #DA7787",
"H  c #E37C8A",
"J  c #6480B7",
"K  c #6989BD",
"L  c #7286B7",
"P  c #748BBC",
"I  c #B5829E",
"U  c #8C8DB5",
"Y  c #928DB4",
"T  c #8992BB",
"R  c #B193B0",
"E  c #D38B9C",
"W  c #E5808D",
"Q  c #E78692",
"!  c #E98793",
"~  c #E88D98",
"^  c #E9939E",
"/  c #CA9BB0",
"(  c #EB9CA6",
")  c #F39BA2",
"_  c #D2A2B3",
"`  c #DAACBA",
"'  c #ECA1AA",
"]  c #E2A5B1",
"[  c #EEACB4",
"{  c #F1B3BA",
"}  c #8596C1",
"|  c #8D9DC5",
" . c #90A0C7",
".. c #97A7CB",
"X. c #99A8CB",
"o. c #C2ABC1",
"O. c #C3B3C9",
"+. c #CFBDCF",
"@. c #F1BBC1",
"#. c #D5CBDB",
"$. c #F3C3C8",
"%. c #F5CED3",
"&. c #F8CFD2",
"*. c #EFD2D9",
"=. c #F1D2D8",
"-. c #F9DBDE",
";. c #C1CBE1",
":. c #CDD5E6",
">. c #D1D8E8",
",. c #DBE1ED",
"<. c #DDE5F1",
"1. c #EAE2EA",
"2. c #FBE3E5",
"3. c #FBE7E9",
"4. c #F4EBEF",
"5. c #FBEAEC",
"6. c #E3E9F3",
"7. c #F7EDF1",
"8. c #F8EEF0",
"9. c #ECF4FA",
"0. c #FEF4F4",
"q. c #FFF8F7",
"w. c #F3F5F9",
"e. c #FDF7F8",
"r. c #F6FCFF",
"t. c #FEFEFE",
/* pixels */
"9 -.t.6.n o o o o o o o l 1.+ @ ; =.i o o o o o o y m ` > * [ ",
"6 - ~ 2.t.;.x y o o o X l 1.@ @ ; =.i o t o o y z R r & W t.t.",
"M I 0 , ( 0.t...z X o o l 1.O @ ; =.i t o o c A H , e -.t.;.V ",
"o s N E 1 1 { t.<.| p   l 1.@ @ = *.i X a T D : 0 $.t.6.J s X ",
"o o t p U ) & 8 3.t.,.B j 1.+ @ ; =.t J _ = > @.0.t. .d o o o ",
"o o o o o h O.8 # ~ t.t.,.7.+ @ ; *.#.9 # Q 0.t.:.j o o o o o ",
"8.8.8.8.8.7.4.e.0.3.5.0.0.3.@ @ = %.5.5.0.t.0.0.4.4.5.5.8.8.8.",
"0 0 0 0 0 0 9 9 9 9 9 9 9 8 @ @ $ 5 9 9 9 8 9 9 0 0 0 0 0 0 9 ",
"O O O O O O O O O O O O O O @ # @ + O O O O O O O O O O O O O ",
"+ + + + + + + @ + + + + + + # @ @ @ + + + + O @ + + + + + + + ",
"1 1 1 1 1 1 1 1 1 1 1 1 1 1 @ @ $ > 1 1 1 1 1 1 1 1 1 1 1 1 1 ",
"r.r.r.r.r.r.t.t.t.t.t.t.t.0.+ @ ; -.t.t.t.t.t.t.t.r.r.r.r.r.r.",
"i i i i a b ;.t.3.^ > q +.7.+ @ ; =.:.w.0.^ < e o.v s i i i i ",
"o X X h | t.q.' 1 4 Z V c 1.@ @ ; =.p C :.t.&.w ; G S k . o o ",
"X u T <.t.@.2 3 E N g . l 1.O @ ; =.i X s P 9.t.@.8 , F } a   ",
"n ,.t.3.8 % ! Y f o o X l 1.@ @ ; =.i o o o d X.t.0.[ - ; / K ",
"t.t.^ $ 7 #.l o o o o o l 1.@ @ ; =.i o o o o o l >.t.t.H # 8 ",
"%.< % ] P X X o o o o o l 1.O @ ; =.i o o o o o o o L 9.t.-.2 "
};
