/* XPM */
static char *ge[] = {
/* columns rows colors chars-per-pixel */
"31 18 75 1 ",
"  c white",
". c #FF5B5B",
"X c red",
"o c #FF8383",
"O c #FFFBFB",
"+ c #FFFEFE",
"@ c #FFD8D8",
"# c #FFF1F1",
"$ c #FFF2F2",
"% c #FFD2D2",
"& c #FFFDFD",
"* c #FFEFEF",
"= c #FFC6C6",
"- c #FF3535",
"; c #FF9292",
": c #FFE7E7",
"> c #FFE1E1",
", c #FFA4A4",
"< c #FF1212",
"1 c #FFCACA",
"2 c #FFF0F0",
"3 c #FFBCBC",
"4 c #FF3636",
"5 c #FF1919",
"6 c #FF2A2A",
"7 c #FF8A8A",
"8 c #FF6C6C",
"9 c #FF3F3F",
"0 c #FF0101",
"q c #FF4848",
"w c #FFB6B6",
"e c #FFF5F5",
"r c #FFCFCF",
"t c #FF2929",
"y c #FF9494",
"u c #FFEDED",
"i c #FFA9A9",
"p c #FFD6D6",
"a c #FFF6F6",
"s c snow",
"d c #FFCBCB",
"f c #FFEAEA",
"g c #FFC9C9",
"h c #FFF7F7",
"j c #FFF4F4",
"k c #FF5656",
"l c #FF7C7C",
"z c #FF4E4E",
"x c #FF5252",
"c c #FF1C1C",
"v c #FF2828",
"b c #FF4C4C",
"n c #FF3434",
"m c #FF3737",
"M c #FF1A1A",
"N c #FF3333",
"B c #FF5D5D",
"V c #FF8686",
"C c #FFD4D4",
"Z c #FFCECE",
"A c #FFB4B4",
"S c #FF2020",
"D c #FF8080",
"F c #FFDEDE",
"G c #FFBABA",
"H c #FFC0C0",
"J c #FF4242",
"K c #FF1F1F",
"L c #FF7575",
"P c #FF4A4A",
"I c #FF0303",
"U c #FF5454",
"Y c #FF2323",
"T c #FFA7A7",
"R c #FFE8E8",
/* pixels */
"             .XXXoO            ",
"     +@#     .XXXoO    $%&     ",
"    *=-;:    .XXXoO   >,<12    ",
"    34567    .XXXoO   890qw    ",
"    erty2    .XXXoO   uiXpa    ",
"     sdf     .XXXoO    fgh     ",
"22222#j$2222+kXXXlu2222$j#22222",
"zzzzzzzzzzzzxcXXXvbzzzzzzzzzzzz",
"XXXXXXXXXXXXXXXXXXXXXXXXXXXXXXX",
"XXXXXXXXXXXXXXXXXXXXXXXXXXXXXXX",
"nnnnnnnnnnnnm<XXXMNnnnnnnnnnnnn",
"             BXXXV             ",
"     +C2     .XXXoO    $Z+     ",
"    fASDF    .XXXoO   p;XGf    ",
"    HJKn;    .XXXoO   LPIUG    ",
"    a%Yy$    .XXXoO   2TXph    ",
"     &:e     .XXXoO    jRs     ",
"             .XXXoO            "
};
