/* XPM */
static char *gh[] = {
/* columns rows colors chars-per-pixel */
"31 18 89 1 ",
"  c #E80006",
". c #ED0006",
"X c #E70006",
"o c #B30005",
"O c #E00006",
"+ c #250001",
"@ c #C80005",
"# c #EB0006",
"$ c #FEEF1E",
"% c #FFF01E",
"& c #FFF11E",
"* c #FFF71F",
"= c #918811",
"- c black",
"; c #8C8510",
": c #FFF61E",
"> c #FFF71E",
", c #E6DE1B",
"< c #C3BC17",
"1 c #CAC318",
"2 c #CBC418",
"3 c #D3CB19",
"4 c #1B1C03",
"5 c #3D3B07",
"6 c #BFB817",
"7 c #CAC218",
"8 c #C8C118",
"9 c #C5BE17",
"0 c #FFF41E",
"q c #DCD21A",
"w c #7D780F",
"e c #222004",
"r c #131202",
"t c #1A1803",
"y c #030300",
"u c #141402",
"i c #111002",
"p c #1E1C03",
"a c #817C0F",
"s c #DFD51B",
"d c #F3E81D",
"f c #B8B016",
"g c #413E08",
"h c #4B4809",
"j c #C4BC17",
"k c #F4E91D",
"l c #FFF91F",
"z c #B8B116",
"x c #0F0E02",
"c c #E1D71A",
"v c #FFF51E",
"b c #F6EF20",
"n c #F7EF20",
"m c #FFF821",
"M c #68640D",
"N c #010100",
"B c #030603",
"V c #3E400A",
"C c #090B03",
"Z c #847F10",
"A c #FAF320",
"S c #308145",
"D c #308245",
"F c #2B713C",
"G c #0B1F12",
"H c #092517",
"J c #216B3D",
"K c #3E9048",
"L c #266D3C",
"P c #092718",
"I c #06130B",
"U c #307F43",
"Y c #1C7748",
"T c #1D7749",
"R c #17643D",
"E c #165835",
"W c #207C4A",
"Q c #1F7A49",
"! c #1C7648",
"~ c #1F7A4A",
"^ c #207C4B",
"/ c #145131",
"( c #18673F",
") c #1D7849",
"_ c #1F7848",
"` c #1F7948",
"' c #207A49",
"] c #207B4A",
"[ c white",
/* pixels */
"                               ",
"                               ",
"                               ",
"               .               ",
"              Xo.              ",
"              O+@#             ",
"$$$$$$$$$%&&&*=-;:&&&%$$$$$$$$$",
"::::::::>,<1234-56789,:::::::::",
"00000000:qwert--yuipas000000000",
"000000000:dfg-----hjk>000000000",
"00000000000lzx----cv00000000000",
"bbbbbbbbbbnmMNBVC-ZAbbbbbbbbbbb",
"SSSSSSSSSSDFGHJKLPIUDSSSSSSSSSS",
"YYYYYYYYYYTREWQ!~^/()YYYYYYYYYY",
"___________`'_____]____________",
"_______________________________",
"_______________________________",
"_______________________________"
};
