/* XPM */
static char *gn[] = {
/* columns rows colors chars-per-pixel */
"31 18 16 1 ",
"  c #CE1126",
". c #E46F1E",
"X c #E5701E",
"o c #06945E",
"O c #07945E",
"+ c #09945E",
"@ c #009460",
"# c #029560",
"$ c #FBCD16",
"% c #FCCD16",
"& c #FCD116",
"* c #FDD116",
"= c #FDD515",
"- c #FEDA15",
"; c #C5C126",
": c #C5C426",
/* pixels */
"          .=$$$$$$$%;+oOOOOOOOO",
"          X-&&&&&&&*:#@@@@@@@@@",
"          X-&&&&&&&*:#@@@@@@@@@",
"          X-&&&&&&&*:#@@@@@@@@@",
"          X-&&&&&&&*:#@@@@@@@@@",
"          X-&&&&&&&*:#@@@@@@@@@",
"          X-&&&&&&&*:#@@@@@@@@@",
"          X-&&&&&&&*:#@@@@@@@@@",
"          X-&&&&&&&*:#@@@@@@@@@",
"          X-&&&&&&&*:#@@@@@@@@@",
"          X-&&&&&&&*:#@@@@@@@@@",
"          X-&&&&&&&*:#@@@@@@@@@",
"          X-&&&&&&&*:#@@@@@@@@@",
"          X-&&&&&&&*:#@@@@@@@@@",
"          X-&&&&&&&*:#@@@@@@@@@",
"          X-&&&&&&&*:#@@@@@@@@@",
"          X-&&&&&&&*:#@@@@@@@@@",
"          X-&&&&&&&*:#@@@@@@@@@"
};
