/* XPM */
static char *gr[] = {
/* columns rows colors chars-per-pixel */
"31 18 72 1 ",
"  c #101F8A",
". c #081886",
"X c #737CBB",
"o c white",
"O c #CED1E7",
"+ c #283696",
"@ c #0F1E89",
"# c #0F1E8A",
"$ c #1F2D91",
"% c #313E9A",
"& c #303D9A",
"* c #0C1C88",
"= c #051484",
"- c #717ABA",
"; c #CDD0E6",
": c #253394",
"> c #0B1A87",
", c #0D1C88",
"< c #6E77B8",
"1 c #E5E7F2",
"2 c #DDDFEE",
"3 c #2F3C9A",
"4 c #868DC4",
"5 c #D4D7EA",
"6 c #4450A4",
"7 c #2E3B99",
"8 c #838BC2",
"9 c #EBECF5",
"0 c #E4E5F2",
"q c #E8E9F4",
"w c #E7E9F3",
"e c #F1F2F8",
"r c #FAFAFD",
"t c #EAEBF5",
"y c #8E96C8",
"u c #202E92",
"i c #273595",
"p c #9097C9",
"a c #061585",
"s c #14238C",
"d c #0D1C89",
"f c #767FBC",
"g c #CFD2E7",
"h c #2C3A98",
"j c #13228C",
"k c #15248D",
"l c #8088C2",
"z c #FCFDFE",
"x c #071686",
"c c #727BBA",
"v c #CDD0E7",
"b c #E3E4F1",
"n c #DADDED",
"m c #051585",
"M c #263395",
"N c #0B1B88",
"B c #38449D",
"V c #36439C",
"C c #8087C1",
"Z c #D2D5E9",
"A c #3C489F",
"S c #243294",
"D c #223093",
"F c #233093",
"G c #F2F3F9",
"H c #F8F8FB",
"J c #F4F4F9",
"K c #F6F6FB",
"L c #1F2D92",
"P c #D9DCEC",
"I c #F9F9FC",
"U c #12218B",
/* pixels */
"   .XoO+@   ###################",
"   .XoO+@  $%&&&&&&&&&&&&&&&&&&",
"***=-o;:>*,<1222222222222222222",
"333+4o5673&89000000000000000000",
"qqqweortqqwyuiiiiiiiiiiiiiiiiii",
"ooooooooooopa##################",
"sssdfoghjsklozzzzzzzzzzzzzzzzzz",
"@@@xcovid@#<bnnnnnnnnnnnnnnnnnn",
",,,m-o;MN,duBVVVVVVVVVVVVVVVVVV",
"MMM$CoZASMMSDFFFFFFFFFFFFFFFFFF",
"GGGGHozJGGGGGGGGGGGGGGGGGGGGGGG",
"KKKKKKKKKKKKKKKKKKKKKKKKKKKKKKK",
"LLLLLLLLLLLLLLLLLLLLLLLLLLLLLLL",
"VVVVVVVVVVVVVVVVVVVVVVVVVVVVVVV",
"PPPPPPPPPPPPPPPPPPPPPPPPPPPPPPP",
"IIIIIIIIIIIIIIIIIIIIIIIIIIIIIII",
"UUUUUUUUUUUUUUUUUUUUUUUUUUUUUUU",
"                               "
};
