/* XPM */
static char * us_xpm[] = {
"32 18 140 2",
"  	c None",
". 	c #072D6C",
"+ 	c #1C3F78",
"@ 	c #0D3270",
"# 	c #123772",
"$ 	c #032B6A",
"% 	c #20447B",
"& 	c #012969",
"* 	c #1C3F79",
"= 	c #032A69",
"- 	c #1A3E77",
"; 	c #22447C",
"> 	c #182865",
", 	c #CD0D30",
"' 	c #C00E34",
") 	c #C00F34",
"! 	c #072E6D",
"~ 	c #385789",
"{ 	c #2A4B81",
"] 	c #25477E",
"^ 	c #173C76",
"/ 	c #375789",
"( 	c #24467E",
"_ 	c #325286",
": 	c #163B75",
"< 	c #2D4F83",
"[ 	c #3A598A",
"} 	c #19356F",
"| 	c #F299A7",
"1 	c #E392A3",
"2 	c #072E6C",
"3 	c #345587",
"4 	c #355587",
"5 	c #27497F",
"6 	c #24467D",
"7 	c #2D4E83",
"8 	c #39598A",
"9 	c #2B4C81",
"0 	c #23467D",
"a 	c #294B80",
"b 	c #395789",
"c 	c #2F5085",
"d 	c #1C3A74",
"e 	c #FEC8CE",
"f 	c #EEBEC8",
"g 	c #052C6B",
"h 	c #2C4D82",
"i 	c #3B5A8B",
"j 	c #23457D",
"k 	c #2E4F83",
"l 	c #1E4179",
"m 	c #4B6795",
"n 	c #1F427B",
"o 	c #2E4E83",
"p 	c #1E417A",
"q 	c #486593",
"r 	c #20437B",
"s 	c #172864",
"t 	c #D01739",
"u 	c #C3183C",
"v 	c #0C326F",
"w 	c #466392",
"x 	c #27487F",
"y 	c #4E6A96",
"z 	c #113672",
"A 	c #446190",
"B 	c #0B316E",
"C 	c #3E5C8C",
"D 	c #153974",
"E 	c #506B97",
"F 	c #1E3F78",
"G 	c #FFF3F3",
"H 	c #F9E6EA",
"I 	c #022A69",
"J 	c #1E427A",
"K 	c #365688",
"L 	c #1B3F78",
"M 	c #2F5084",
"N 	c #0D3370",
"O 	c #4C6895",
"P 	c #103672",
"Q 	c #123773",
"R 	c #486592",
"S 	c #0F3572",
"T 	c #1A346E",
"U 	c #F296A4",
"V 	c #E28FA1",
"W 	c #0A316E",
"X 	c #345386",
"Y 	c #345486",
"Z 	c #163A75",
"` 	c #20437C",
" .	c #1A2B67",
"..	c #D11B3C",
"+.	c #C41C3F",
"@.	c #022A6A",
"#.	c #294A80",
"$.	c #2C4C81",
"%.	c #1C4079",
"&.	c #22457C",
"*.	c #305084",
"=.	c #2F5083",
"-.	c #193C76",
";.	c #FFF8F7",
">.	c #FAEBEE",
",.	c #FAEBED",
"'.	c #002868",
").	c #315285",
"!.	c #133873",
"~.	c #2A4C81",
"{.	c #123873",
"].	c #23457C",
"^.	c #325285",
"/.	c #122967",
"(.	c #E36076",
"_.	c #D45C75",
":.	c #6980A6",
"<.	c #798DB0",
"[.	c #6C82A8",
"}.	c #7187AB",
"|.	c #657DA4",
"1.	c #7D91B2",
"2.	c #637BA3",
"3.	c #798EB0",
"4.	c #778CAF",
"5.	c #647CA4",
"6.	c #7D91B3",
"7.	c #727BA0",
"8.	c #DF637A",
"9.	c #D7647D",
"0.	c #FBFFFF",
"a.	c #FAFFFF",
"b.	c #FFFFFF",
"c.	c #C3183B",
"d.	c #DD7D91",
"e.	c #F2CCD4",
"f.	c #C21337",
"g.	c #F7DFE4",
"h.	c #E8A4B2",
"i.	c #BD0129",
". + @ # $ % & * = - $ ; > , ' ) ) ) ) ) ) ) ) ) ) ) ) ) ) ) ) ) ",
"! ~ { ] ^ / ( _ : < ] [ } | 1 1 1 1 1 1 1 1 1 1 1 1 1 1 1 1 1 1 ",
"2 3 4 5 6 7 8 9 0 a b c d e f f f f f f f f f f f f f f f f f f ",
"g h i j k l m n o p q r s t u u u u u u u u u u u u u u u u u u ",
"v w x h v y z A B C D E F G H H H H H H H H H H H H H H H H H H ",
"I J K L M N O P M Q R S T U V V V V V V V V V V V V V V V V V V ",
"W X x 6 : Y n M Z h ` K  ...+.+.+.+.+.+.+.+.+.+.+.+.+.+.+.+.+.+.",
"@.#.$.%.L &.*.r L p =.6 -.;.>.,.,.,.,.,.,.,.,.,.,.,.,.,.,.,.,.,.",
"'.).5 r !.M &.~.{.5 ].^./.(._._._._._._._._._._._._._._._._._._.",
":.<.[.}.|.1.2.3.|.4.5.6.7.8.9.9.9.9.9.9.9.9.9.9.9.9.9.9.9.9.9.9.",
"0.a.a.a.0.a.0.a.0.a.0.a.0.b.b.b.b.b.b.b.b.b.b.b.b.b.b.b.b.b.b.b.",
"c.c.c.c.c.c.c.c.c.c.c.c.c.c.c.c.c.c.c.c.c.c.c.c.c.c.c.c.c.c.c.c.",
"d.d.d.d.d.d.d.d.d.d.d.d.d.d.d.d.d.d.d.d.d.d.d.d.d.d.d.d.d.d.d.d.",
"e.e.e.e.e.e.e.e.e.e.e.e.e.e.e.e.e.e.e.e.e.e.e.e.e.e.e.e.e.e.e.e.",
"f.f.f.f.f.f.f.f.f.f.f.f.f.f.f.f.f.f.f.f.f.f.f.f.f.f.f.f.f.f.f.f.",
"g.g.g.g.g.g.g.g.g.g.g.g.g.g.g.g.g.g.g.g.g.g.g.g.g.g.g.g.g.g.g.g.",
"h.h.h.h.h.h.h.h.h.h.h.h.h.h.h.h.h.h.h.h.h.h.h.h.h.h.h.h.h.h.h.h.",
"i.i.i.i.i.i.i.i.i.i.i.i.i.i.i.i.i.i.i.i.i.i.i.i.i.i.i.i.i.i.i.i."};
